<svg xmlns="http://www.w3.org/2000/svg" viewBox="-154 0 512 512">
  <path d="M83.074 477.305c15.867 0 28.778-12.91 28.778-28.778 0-15.867-12.91-28.777-28.778-28.777-15.867 0-28.777 12.91-28.777 28.777 0 15.868 12.91 28.778 28.777 28.778zm0-42.496c7.567 0 13.719 6.156 13.719 13.718 0 7.567-6.152 13.72-13.719 13.72-7.562 0-13.719-6.153-13.719-13.72 0-7.562 6.157-13.718 13.72-13.718zm0 0"/>
  <path d="M204.984 134.215c.801-4.078-1.859-8.035-5.937-8.84a7.53 7.53 0 00-8.84 5.941L135.07 412.133c-10.062-14.375-25.953-24.457-44.507-26.64-4.11-.481-7.872 2.468-8.356 6.597a7.524 7.524 0 006.594 8.36c24.336 2.862 42.687 23.53 42.687 48.077 0 26.696-21.718 48.414-48.414 48.414-26.695 0-48.414-21.718-48.414-48.414a48.374 48.374 0 0117.047-36.879 7.527 7.527 0 00.852-10.613 7.528 7.528 0 00-10.614-.855 63.887 63.887 0 00-9.715 10.363L15.56 151.785h118.496c17.695 0 32.093-14.394 32.093-32.094V83.074c0-11.113-2.16-21.906-6.421-32.078a7.528 7.528 0 00-9.852-4.035 7.528 7.528 0 00-4.04 9.851c3.49 8.32 5.255 17.157 5.255 26.262v36.617c0 9.395-7.64 17.036-17.035 17.036h-43.45v-29.543c13.391-3.372 23.34-15.512 23.34-29.938 0-17.02-13.847-30.867-30.87-30.867-17.02 0-30.872 13.848-30.872 30.867 0 14.426 9.95 26.566 23.344 29.938v29.543H15.059V83.074c0-37.504 30.511-68.015 68.015-68.015 12.801 0 25.274 3.574 36.059 10.336a7.531 7.531 0 0010.379-2.383c2.207-3.524 1.144-8.172-2.383-10.38C113.94 4.368 98.707 0 83.074 0 37.266 0 0 37.266 0 83.074v61.184c0 .082.012.16.012.242.004.082 0 .16.004.242l19.597 304.184C19.828 483.742 48.207 512 83.074 512c34.996 0 63.473-28.473 63.473-63.473a63.86 63.86 0 00-1.09-11.761c.16-.418.293-.856.379-1.313zM67.266 77.246c0-8.715 7.09-15.808 15.808-15.808s15.813 7.093 15.813 15.808c0 8.719-7.094 15.813-15.813 15.813s-15.808-7.094-15.808-15.813zm0 0"/>
</svg>
