<svg id="gloves" enable-background="new 0 0 300 300" height="512" viewBox="0 0 300 300" width="512" xmlns="http://www.w3.org/2000/svg"><g><path d="m253.181 127.469 2.828-2.828c1.562-1.562 1.562-4.094 0-5.656s-4.094-1.562-5.656 0l-2.828 2.828-2.828-2.828c-1.562-1.562-4.094-1.562-5.656 0s-1.562 4.094 0 5.656l2.828 2.828-2.828 2.828c-1.562 1.562-1.562 4.094 0 5.656.781.781 1.805 1.172 2.828 1.172s2.047-.391 2.828-1.172l2.828-2.828 2.828 2.828c.781.781 1.805 1.172 2.828 1.172s2.047-.391 2.828-1.172c1.562-1.562 1.562-4.094 0-5.656z"/><circle cx="219.525" cy="171.469" r="4"/><path d="m243.919 70.234c-1.973-6.51-8.887-10.203-15.385-8.229-3.154.955-5.748 3.082-7.303 5.988s-1.883 6.244-.928 9.398c1.613 5.322 6.52 8.76 11.814 8.76 1.182 0 2.385-.172 3.572-.531 6.512-1.974 10.203-8.876 8.23-15.386zm-10.549 7.731c-2.283.699-4.717-.602-5.41-2.893-.336-1.109-.221-2.283.326-3.305s1.457-1.77 2.566-2.105c.418-.127.84-.188 1.256-.188 1.861 0 3.586 1.209 4.154 3.08.694 2.29-.602 4.717-2.892 5.411z"/><path d="m189.583 104.039c-3.885-2.328-8.256-3.012-12.305-1.928-3.904 1.051-7.191 3.686-9.256 7.424-2.516 4.555-7.109 10.568-11.33 15.727l12.355-72.014c.805-6.416-2.828-12.574-9.078-15.074-4.096-1.643-8.66-1.367-12.514.744-3.84 2.104-6.51 5.777-7.328 10.08-1.797 9.455-4.367 22.373-6.764 34.271l-2.057-45.641c-.314-7.344-6.322-13.098-13.92-13.098-7.744 0-14.043 6.27-14.043 13.975v42.018l-8.898-33.816c-.996-3.785-3.613-6.881-7.18-8.494-3.561-1.613-7.619-1.537-11.115.215-5.035 2.516-7.85 7.945-7.008 13.512l6.902 45.477-8.244-15.118c-3.436-6.301-11.414-8.744-17.799-5.467-5.881 3.029-8.631 9.785-6.424 16.363l18.234 42.748c1.73 5.188 3.111 10.537 4.109 15.898l5.336 28.705c1.656 8.91 4.012 17.977 12.367 23.404l-7.969 30.506c-.314 1.199-.055 2.477.703 3.457s1.928 1.555 3.166 1.555h8v32c0 2.209 1.791 4 4 4s4-1.791 4-4v-32h40v32c0 2.209 1.791 4 4 4s4-1.791 4-4v-32h8c1.246 0 2.42-.58 3.178-1.57.756-.988 1.01-2.275.684-3.477l-7.477-27.562c5.467-2.402 9.9-6.801 12.219-12.246l33.084-72.287c3.628-8.512 2.407-14.664-3.628-18.287zm-3.687 15.055-33.084 72.287c-1.908 4.48-5.906 7.855-10.695 9.029-1.047.256-1.945.924-2.492 1.854-.547.928-.697 2.039-.416 3.078l7.088 26.127h-61.593l7.441-28.486c.488-1.863-.42-3.807-2.16-4.629-6.711-3.17-8.994-9.217-10.863-19.268l-5.336-28.705c-1.064-5.723-2.539-11.432-4.5-17.271l-18.234-42.749c-.836-2.508.262-5.205 2.613-6.416 2.541-1.312 5.738-.336 7.111 2.184l19.121 35.055c.93 1.707 2.957 2.488 4.789 1.875 1.84-.621 2.969-2.473 2.678-4.391l-10.31-67.928c-.322-2.125.752-4.197 2.674-5.156 1.334-.672 2.879-.699 4.242-.084 1.361.617 2.359 1.799 2.738 3.242l16.768 63.715c.512 1.943 2.391 3.197 4.383 2.949 1.994-.258 3.486-1.957 3.486-3.967v-72.933c0-3.295 2.711-5.975 6.289-5.975 3.055 0 5.551 2.391 5.682 5.449l3.514 78.008c.092 2.016 1.67 3.648 3.68 3.809 1.973.152 3.826-1.205 4.234-3.182.088-.432 8.908-43.303 13.244-66.125.369-1.943 1.576-3.605 3.312-4.555 1.752-.961 3.83-1.088 5.945-.234 2.627 1.051 4.217 3.744 3.893 6.373l-14.521 84.613c-1.431 1.048-2.895 2.088-4.413 3.141-5.6 3.879-11.391 7.891-15.459 13.316l-.709.945c-1.326 1.768-.969 4.275.799 5.6.721.541 1.562.801 2.396.801 1.217 0 2.418-.553 3.203-1.6l.709-.945c3.291-4.389 8.539-8.023 13.615-11.541 1.939-1.344 3.85-2.668 5.631-4.01.855-.644 1.679-1.552 2.509-2.691 4.196-4.727 15.301-17.563 20.128-26.301 1.02-1.844 2.516-3.078 4.328-3.564 1.932-.521 4.104-.145 6.111 1.061 1.318.79 3.122 1.872.431 8.195z"/></g></svg>