<svg xmlns="http://www.w3.org/2000/svg" viewBox="-24 1 511 511.999">
  <path d="M399.547 239.96a7.52 7.52 0 007.52-7.519V105h4.206c8.567 0 15.54-6.973 15.54-15.54V61.79h21.335c8.567 0 15.54-6.97 15.54-15.54V15.54c0-8.567-6.973-15.54-15.54-15.54h-234.77a7.52 7.52 0 000 15.04h234.77c.274 0 .5.226.5.5v30.71a.504.504 0 01-.5.504H107.961a.505.505 0 01-.504-.504V15.54c0-.278.227-.5.504-.5h58.293A7.52 7.52 0 10166.258 0H107.96c-8.57 0-15.54 6.973-15.54 15.54v30.71c0 8.57 6.97 15.54 15.54 15.54h21.336v27.67c0 8.567 6.969 15.54 15.539 15.54h4.207v175.969H36.461C16.633 280.969.5 297.102.5 316.929v1.544c0 19.832 16.133 35.96 35.96 35.96h40.833c5.484 0 9.945 4.462 9.945 9.946 0 5.48-4.46 9.941-9.945 9.941H46.258a7.52 7.52 0 000 15.04h31.039c13.773 0 24.98-11.208 24.98-24.981 0-13.774-11.207-24.98-24.98-24.98H36.46c-11.535 0-20.922-9.387-20.922-20.922v-1.547c0-11.535 9.387-20.922 20.922-20.922h112.578V407h-4.203c-8.57 0-15.543 6.973-15.543 15.54v27.67H107.96c-8.57 0-15.543 6.97-15.543 15.54v30.71c0 8.567 6.973 15.54 15.543 15.54h340.187c8.567 0 15.54-6.973 15.54-15.54v-30.71c0-8.57-6.973-15.54-15.54-15.54h-21.336v-27.67c0-8.567-6.972-15.54-15.539-15.54h-4.207V278.559a7.52 7.52 0 00-15.039 0v23.492l-45.652-61.04 45.652-27.956v19.386a7.52 7.52 0 007.52 7.52zm-7.52-102.37l-227.949 139.6v-40.726L384.727 105h7.3zM285.187 105h70.16L164.079 218.957v-39.785zm-121.109 56.535V105h92.313zm-19.242-71.574a.504.504 0 01-.504-.5V61.789h267.441v27.672c0 .273-.226.5-.5.5zM321.523 407h-46.097l-62.856-84.04 31.614-19.362zm-64.457-111.293l31.973-19.578L386.922 407h-46.617zM256.645 407h-47.09l-42.164-56.371 32.297-19.781zm-65.872 0h-26.695v-35.691zm257.375 58.246c.274 0 .5.227.5.504v30.71c0 .274-.226.5-.5.5H107.961a.504.504 0 01-.504-.5v-30.71c0-.277.227-.504.504-.504zm-48.601-43.207h11.723c.277 0 .503.227.503.5v27.672H144.332v-27.672c0-.277.227-.5.504-.5h191.711zm-7.52-94.879v61.559l-90.109-120.48 31.578-19.337zm-149.789-40.008l-.004.004-78.156 47.864v-40.192l227.95-139.605v40.195zm0 0"/>
</svg>
