<svg id="cross" enable-background="new 0 0 300 300" height="512" viewBox="0 0 300 300" width="512" xmlns="http://www.w3.org/2000/svg"><g><path d="m228.382 47.165c2.209 0 4-1.791 4-4v-8c0-2.209-1.791-4-4-4s-4 1.791-4 4v8c0 2.209 1.791 4 4 4z"/><path d="m228.382 55.165c-2.209 0-4 1.791-4 4v8c0 2.209 1.791 4 4 4s4-1.791 4-4v-8c0-2.209-1.791-4-4-4z"/><path d="m212.382 55.165h8c2.209 0 4-1.791 4-4s-1.791-4-4-4h-8c-2.209 0-4 1.791-4 4s1.791 4 4 4z"/><path d="m236.382 55.165h8c2.209 0 4-1.791 4-4s-1.791-4-4-4h-8c-2.209 0-4 1.791-4 4s1.791 4 4 4z"/><path d="m267.342 94.835c-2.362 0-4.276 1.915-4.276 4.277s1.915 4.276 4.276 4.276 4.276-1.915 4.276-4.276-1.915-4.277-4.276-4.277z"/><path d="m179.342 35.388c2.362 0 4.276-1.915 4.276-4.276s-1.915-4.277-4.276-4.277-4.276 1.915-4.276 4.277 1.914 4.276 4.276 4.276z"/><path d="m217.575 78.78c-1.566 1.557-1.574 4.09-.016 5.656 19.875 19.996 30.822 46.535 30.822 74.729 0 58.449-47.551 106-106 106s-106-47.551-106-106 47.551-106 106-106c22.961 0 44.809 7.219 63.18 20.879 1.779 1.318 4.283.949 5.598-.824 1.316-1.773.949-4.279-.824-5.598-19.762-14.691-43.26-22.457-67.953-22.457-62.859 0-114 51.141-114 114s51.141 114 114 114 114-51.141 114-114c0-30.32-11.773-58.863-33.148-80.369-1.563-1.571-4.092-1.579-5.659-.016z"/><path d="m186.577 69.436c-1.98-.973-4.379-.16-5.357 1.818-.977 1.98-.162 4.379 1.818 5.357 12.16 6 23.055 14.809 31.504 25.477.789.996 1.957 1.516 3.137 1.516.871 0 1.746-.283 2.482-.865 1.73-1.371 2.023-3.887.65-5.619-9.179-11.59-21.017-21.162-34.234-27.684z"/><path d="m231.638 136.768c.455 1.816 2.086 3.029 3.877 3.029.322 0 .648-.037.975-.119 2.143-.537 3.445-2.709 2.91-4.852-1.924-7.691-4.773-15.15-8.471-22.174-1.025-1.953-3.441-2.701-5.402-1.676-1.955 1.029-2.705 3.447-1.676 5.402 3.398 6.458 6.019 13.318 7.787 20.39z"/><path d="m202.443 106.75-38.061 18.914v-42.5c0-2.209-1.791-4-4-4h-36c-2.209 0-4 1.791-4 4v42.5l-38.061-18.914c-1.979-.992-4.381-.178-5.361 1.803l-16.021 32.238c-.473.949-.547 2.047-.209 3.053s1.061 1.836 2.012 2.309l30.207 15.012-30.207 15.012c-.951.473-1.674 1.303-2.012 2.309s-.264 2.104.209 3.053l16.021 32.238c.98 1.977 3.383 2.789 5.361 1.803l38.061-18.914v42.5c0 2.209 1.791 4 4 4h36c2.209 0 4-1.791 4-4v-42.5l38.061 18.914c1.967.986 4.377.174 5.361-1.803l16.021-32.238c.473-.949.547-2.047.209-3.053s-1.061-1.836-2.012-2.309l-30.207-15.012 30.207-15.012c.951-.473 1.674-1.303 2.012-2.309s.264-2.104-.209-3.053l-16.021-32.238c-.985-1.98-3.395-2.795-5.361-1.803zm-21.395 50.833c-1.361.676-2.221 2.062-2.221 3.582s.859 2.906 2.221 3.582l33.834 16.814-12.463 25.074-40.258-20.008c-1.234-.617-2.705-.549-3.887.182-1.176.73-1.893 2.016-1.893 3.4v44.955h-28v-44.955c0-1.385-.717-2.67-1.893-3.4-1.18-.73-2.654-.799-3.887-.182l-40.258 20.008-12.463-25.074 33.834-16.814c1.361-.676 2.221-2.062 2.221-3.582s-.859-2.906-2.221-3.582l-33.834-16.814 12.463-25.074 40.258 20.008c1.236.615 2.703.547 3.887-.182 1.176-.73 1.893-2.016 1.893-3.4v-44.956h28v44.955c0 1.385.717 2.67 1.893 3.4 1.178.729 2.65.797 3.887.182l40.258-20.008 12.463 25.074z"/></g></svg>