<svg xmlns="http://www.w3.org/2000/svg" viewBox="-38 0 512 512.002">
  <path d="M76.8 315.82a7.494 7.494 0 10-14.987 0v32.524a7.494 7.494 0 0014.988 0zm0 0M76.8 185.727a7.494 7.494 0 00-14.988 0v32.523a7.495 7.495 0 1014.989 0zm0 0M69.309 373.371a7.494 7.494 0 00-7.496 7.492v32.524a7.495 7.495 0 1014.988 0v-32.524a7.494 7.494 0 00-7.492-7.492zm0 0M76.8 250.773a7.494 7.494 0 10-14.987 0v32.524a7.494 7.494 0 0014.988 0zm0 0M353.57 335.277a7.495 7.495 0 10-14.988 0v36.414a7.494 7.494 0 0014.988 0zm0 0M346.078 400.61a7.495 7.495 0 00-7.496 7.495v36.415a7.494 7.494 0 0014.988 0v-36.415a7.494 7.494 0 00-7.492-7.496zm0 0M353.57 189.617a7.494 7.494 0 00-14.988 0v36.414a7.494 7.494 0 1014.988 0zm0 0M353.57 262.445a7.494 7.494 0 00-14.988 0v36.414a7.494 7.494 0 1014.988 0zm0 0"/>
  <path d="M392.238 0H29.07C13.043 0 .004 13.04.004 29.07v29.094a7.492 7.492 0 1014.984 0V29.07c0-7.765 6.32-14.082 14.086-14.082h330.528c-6.528 7.559-10.485 17.39-10.485 28.137v56.965c0 10.746 3.957 20.578 10.485 28.137H29.07c-7.765 0-14.082-6.32-14.082-14.082v-9.016a7.494 7.494 0 10-14.988 0v9.016c0 14.101 10.102 25.89 23.445 28.515v312.805c0 8.508 6.918 15.457 15.422 15.488 9.621.035 19.336-.074 28.922-.219.488.102.996.157 1.52.157.59 0 1.16-.079 1.71-.207l8.051-.13c30.344-.507 61.72-1.034 92.27 1.837 24.055 2.257 44.594 6.297 62.789 12.347 7.969 2.649 16.023 5.946 23.816 9.137 14.16 5.797 28.801 11.793 44.52 14.7 13.965 2.585 28.086 2.491 41.738 2.398 10.598-.07 20.606-.137 30.59.941a15.5 15.5 0 0012.004-3.875 15.506 15.506 0 005.14-11.523v-133.27a7.494 7.494 0 00-14.988 0v133.27c0 .062 0 .226-.164.375a.473.473 0 01-.387.12c-7.625-.824-15.28-1.027-22.828-1.05v-15.027a7.495 7.495 0 10-14.988 0v15.082c-11.523.039-22.55-.172-33.394-2.18-14.196-2.625-27.489-8.066-41.563-13.828-8.023-3.285-16.32-6.684-24.77-9.492-19.289-6.414-40.914-10.68-66.117-13.047-31.375-2.946-63.172-2.414-93.922-1.899-.668.012-1.347.024-2.015.032v-9.692a7.494 7.494 0 00-14.988 0v9.918c-7.633.102-15.301.168-22.891.14a.491.491 0 01-.488-.5V143.216h23.379v9.992a7.494 7.494 0 0014.988 0v-9.992h261.781v9.992a7.494 7.494 0 0014.988 0v-9.992h23.38V317.07a7.494 7.494 0 0014.988 0V143.215h.3c23.782 0 43.125-19.348 43.125-43.125V43.125C435.367 19.348 416.02 0 392.238 0zm28.14 100.09c0 15.512-12.62 28.137-28.14 28.137-15.511 0-28.136-12.625-28.136-28.137V43.125c0-15.516 12.62-28.137 28.136-28.137s28.14 12.621 28.14 28.137zm0 0"/>
  <path d="M392.238 43.238a7.494 7.494 0 00-7.492 7.496V92.48a7.494 7.494 0 0014.988 0V50.734a7.495 7.495 0 00-7.496-7.496zm0 0"/>
</svg>
