<svg xmlns="http://www.w3.org/2000/svg" viewBox="0 -21 512 511">
  <path d="M414.297 223.672c-1.5-8.016-8.762-13.645-16.883-13.102-35.074 2.348-155.976 15.64-239.18 88.075-5.132 4.468-6.906 11.468-4.523 17.835 2.375 6.344 8.285 10.442 15.055 10.442h245.476c4.797 0 9.305-2.117 12.371-5.809a16.056 16.056 0 003.438-13.254zm-68.07 87.883h-74.614v-14.012c0-.91.742-1.648 1.649-1.648h71.316c.91 0 1.649.738 1.649 1.648zm68.855-.016c-.219.266-.5.399-.844.399h-53.023v-14.395c0-9.176-7.465-16.637-16.637-16.637h-71.312c-9.176 0-16.637 7.465-16.637 16.637v14.394h-87.86c-.246 0-.757 0-1.023-.71-.277-.75.149-1.122.328-1.282 79.672-69.355 196.45-82.152 230.344-84.425.555-.047 1.047.355 1.148.906l15.758 84.187c.063.348-.02.657-.242.926zm0 0"/>
  <path d="M511.586 233.063l-6.426-31.051c-1.113-5.39-4.277-9.992-8.91-12.957-4.621-2.965-10.117-3.914-15.465-2.676l-14.226 3.293-1.782-8.383c-4.687-22.027-25.062-36.715-46.382-33.441l-50.157 7.707a1252.512 1252.512 0 00-18.785 3.273 7.49 7.49 0 00-6.027 8.715 7.488 7.488 0 008.715 6.027c6.078-1.105 12.32-2.195 18.464-3.218l50.063-7.692c13.484-2.07 26.418 7.485 29.453 21.746l26.25 123.45a219.688 219.688 0 014.793 45.648v56.848c0 .714-.426 1.183-.71 1.187l-452.653.934 17.68-53.325c13.37-40.332 37.859-74.562 70.816-98.996 43.922-32.562 108.078-58.593 190.676-77.367a7.499 7.499 0 005.648-8.969c-.918-4.035-4.934-6.558-8.969-5.644-71.863 16.332-130.304 38.187-174.226 65.105v-3.652c0-7.934-6.453-14.387-14.387-14.387H78.83c-7.934 0-14.384 6.453-14.384 14.387 0 0 .02 60.852.04 61.086-14.258 18.93-25.489 40.375-33.227 63.719l-20.914 63.078-9.016 24.332c-2.414 6.527-1.5 13.808 2.445 19.48 3.786 5.438 9.676 8.559 16.157 8.559h39.918a7.494 7.494 0 000-14.988H19.93c-2.063 0-3.301-1.336-3.856-2.133-1.148-1.649-1.406-3.781-.691-5.711l7.246-19.567h440.48v21.762c0 3.117-2.214 5.653-4.933 5.653H106.469c-4.137 0-7.492 3.355-7.492 7.492s3.355 7.492 7.492 7.492h351.707c10.984 0 19.922-9.258 19.922-20.637v-22.71l2.386-.009c8.641-.015 15.668-7.27 15.668-16.168v-56.851a234.88 234.88 0 00-5.12-48.766l-9.446-44.418 14.738-3.41c10.625-2.46 17.473-13.156 15.262-23.848zM79.43 230.226h35.007v12.828a287.042 287.042 0 00-7.066 5.058 210.693 210.693 0 00-27.941 24.852zm413.515 12.082l-14.476 3.351-6.07-28.531-2.649-12.813 14.414-3.336a5.21 5.21 0 014.008.692 5.247 5.247 0 012.316 3.375l6.422 31.05c.574 2.786-1.203 5.571-3.965 6.212zm0 0"/>
  <path d="M401.223 370.32c0 15.547 12.632 28.196 28.156 28.196 15.527 0 28.16-12.649 28.16-28.196 0-15.547-12.633-28.191-28.16-28.191-15.524 0-28.156 12.644-28.156 28.191zm28.156-13.207c7.266 0 13.176 5.926 13.176 13.207s-5.91 13.207-13.176 13.207c-7.262 0-13.172-5.925-13.172-13.207s5.91-13.207 13.172-13.207zm0 0M93.633 138.078a7.494 7.494 0 00-7.492 7.492v28.282a7.491 7.491 0 007.492 7.492 7.489 7.489 0 007.492-7.492V145.57a7.491 7.491 0 00-7.492-7.492zm0 0M132.668 145.57v28.282a7.491 7.491 0 007.492 7.492 7.489 7.489 0 007.492-7.492V145.57a7.491 7.491 0 00-7.492-7.492 7.494 7.494 0 00-7.492 7.492zm0 0M186.691 138.078a7.494 7.494 0 00-7.496 7.492v28.282a7.492 7.492 0 007.496 7.492 7.491 7.491 0 007.493-7.492V145.57a7.494 7.494 0 00-7.493-7.492zm0 0M86.867 90.168v17.844a7.494 7.494 0 007.492 7.492 7.491 7.491 0 007.493-7.492V83.277a7.491 7.491 0 00-7.493-7.492h-1.175c-10.032 0-18.196-8.183-18.196-18.242v-3.738c0-8.73 6.813-15.871 15.192-15.918 4.144-.063 8.078 1.613 11.004 4.605a7.491 7.491 0 007.695 1.88 7.482 7.482 0 005.082-6.083c1.816-13 13.082-22.8 26.2-22.8 13.12 0 24.382 9.8 26.198 22.8a7.489 7.489 0 005.082 6.082c2.715.895 5.7.164 7.7-1.879 2.902-2.972 6.777-4.605 10.914-4.605h.086c8.379.047 15.195 7.187 15.195 15.918v3.738c0 10.059-8.164 18.242-18.2 18.242a7.491 7.491 0 00-7.491 7.492v24.735a7.491 7.491 0 007.492 7.492 7.494 7.494 0 007.492-7.492V89.918c14.7-3.414 25.691-16.633 25.691-32.375v-3.738c0-16.946-13.5-30.813-30.097-30.903-4.258.004-8.34.813-12.114 2.438C171.625 10.625 156.852.5 140.16.5s-31.465 10.129-37.95 24.84c-3.769-1.625-7.901-2.434-12.112-2.438C73.504 22.992 60 36.86 60 53.805v3.738c0 16.16 11.582 29.66 26.867 32.625zm0 0"/>
</svg>
