<?xml version="1.0" encoding="iso-8859-1"?>
<!-- Generator: Adobe Illustrator 19.0.0, SVG Export Plug-In . SVG Version: 6.00 Build 0)  -->
<svg version="1.1" id="Layer_1" xmlns="http://www.w3.org/2000/svg" xmlns:xlink="http://www.w3.org/1999/xlink" x="0px" y="0px"
	 viewBox="0 0 512.001 512.001" style="enable-background:new 0 0 512.001 512.001;" xml:space="preserve">
<g>
	<g>
		<path d="M271.299,87.961c-46.862-46.863-121.118-50.95-172.726-9.507c-3.775,3.031-4.378,8.55-1.346,12.327
			c3.031,3.775,8.551,4.378,12.327,1.346c44.618-35.832,108.822-32.291,149.346,8.233c43.709,43.709,43.709,114.827,0,158.536
			c-21.173,21.173-49.324,32.833-79.268,32.833s-58.095-11.66-79.268-32.833c-38.328-38.328-43.802-98.444-13.015-142.943
			c2.755-3.981,1.761-9.443-2.221-12.198c-3.984-2.755-9.444-1.759-12.2,2.222c-35.61,51.471-29.286,120.998,15.035,165.32
			c24.485,24.485,57.041,37.97,91.668,37.97s67.182-13.485,91.668-37.97C321.843,220.751,321.843,138.507,271.299,87.961z"/>
	</g>
</g>
<g>
	<g>
		<path d="M225.034,170.861h-36.636v-36.636c0-4.842-3.926-8.768-8.768-8.768c-4.843,0-8.768,3.926-8.768,8.768v36.636h-36.636
			c-4.843,0-8.768,3.926-8.768,8.768s3.925,8.768,8.768,8.768h36.636v36.636c0,4.842,3.924,8.768,8.768,8.768
			c4.843,0,8.768-3.926,8.768-8.768v-36.636h36.636c4.843,0,8.768-3.926,8.768-8.768S229.878,170.861,225.034,170.861z"/>
	</g>
</g>
<g>
	<g>
		<path d="M492.544,415.283c-3.245-4.508-6.894-8.971-10.844-13.266c-3.278-3.563-8.823-3.797-12.39-0.518
			c-3.564,3.278-3.796,8.825-0.518,12.39c3.479,3.782,6.682,7.699,9.522,11.641c29.238,40.607,9.978,58.689,8.519,59.963
			c-0.582,0.44-0.911,0.803-1.374,1.387c-0.174,0.22-17.946,21.66-59.928-8.568c-22.406-16.133-37.798-39.319-54.094-63.867
			c-14.869-22.399-31.48-47.422-55.632-70.119c0.311,0.292,5.376-3.4,5.869-3.745c9.241-6.474,17.114-14.93,22.642-24.784
			c22.703,24.162,47.733,40.783,70.137,55.658c10.308,6.845,20.045,13.31,29.227,20.207c3.873,2.907,9.368,2.127,12.276-1.744
			c2.909-3.871,2.128-9.368-1.743-12.276c-9.59-7.204-19.533-13.805-30.06-20.795c-24.692-16.395-50.182-33.353-72.865-59.524
			c3.208-15.176,0.312-30.207-9.16-40.935c31.411-66.667,19.611-148.8-35.421-203.834c-70.07-70.07-184.084-70.071-254.155,0
			c-70.07,70.071-70.07,184.082,0,254.153c33.462,33.462,77.958,52.147,125.288,52.616c0.029,0,0.058,0,0.089,0
			c4.8,0,8.718-3.868,8.766-8.681c0.048-4.842-3.839-8.807-8.681-8.854c-42.712-0.423-82.864-17.286-113.06-47.481
			c-63.233-63.233-63.233-166.121,0-229.354c63.231-63.231,166.121-63.233,229.354,0c52.009,52.009,61.229,130.84,27.684,192.372
			c-15.226,27.929-38.865,51.171-67.031,65.954c-13.655,7.166-28.323,12.38-43.664,15.419c-4.75,0.941-7.839,5.554-6.897,10.304
			c0.942,4.75,5.559,7.842,10.304,6.897c14.527-2.877,28.503-7.525,41.705-13.761c7.702,6.786,17.975,10.502,29.229,10.503
			c3.912,0,7.855-0.443,11.771-1.279c26.114,22.66,43.047,48.12,59.42,72.782c17.204,25.917,33.455,50.397,58.455,68.399
			c17.978,12.944,34.765,19.459,50.081,19.458c3.909,0,7.723-0.424,11.435-1.275c12.489-2.861,19.575-9.759,21.746-12.18
			c2.422-2.17,9.32-9.255,12.182-21.746C514.908,458.544,508.791,437.847,492.544,415.283z M285.634,335.103
			c-3.373,0-7.656-0.499-11.83-2.374c23.189-14.267,43.122-33.99,57.692-56.988c0.241-0.379,0.486-0.755,0.724-1.136
			c0.172-0.276,0.353-0.546,0.523-0.822c2.955,6.47,3.18,14.431,0.894,22.536c-0.11,0.268-0.222,0.534-0.306,0.815
			C327.314,317.248,307.283,335.103,285.634,335.103z"/>
	</g>
</g>
<g>
</g>
<g>
</g>
<g>
</g>
<g>
</g>
<g>
</g>
<g>
</g>
<g>
</g>
<g>
</g>
<g>
</g>
<g>
</g>
<g>
</g>
<g>
</g>
<g>
</g>
<g>
</g>
<g>
</g>
</svg>
