<svg xmlns="http://www.w3.org/2000/svg" viewBox="0 -138 512.001 512">
  <path d="M450.02 146.031c-16.032 0-29.079 13.047-29.079 29.078 0 16.036 13.047 29.078 29.079 29.078 16.035 0 29.078-13.042 29.078-29.078 0-16.03-13.043-29.078-29.078-29.078zm0 43.137c-7.75 0-14.055-6.305-14.055-14.059 0-7.75 6.305-14.058 14.055-14.058 7.753 0 14.058 6.308 14.058 14.058 0 7.754-6.305 14.059-14.058 14.059zm0 0M149.918 101.3c46.512 0 93.602-12.55 93.602-36.538s-47.086-36.54-93.602-36.54-93.602 12.551-93.602 36.54 47.086 36.539 93.602 36.539zM91.441 51.356c15.508-5.23 36.274-8.109 58.477-8.109 22.2 0 42.965 2.879 58.473 8.11 15.902 5.359 20.105 11.113 20.105 13.406 0 2.297-4.203 8.05-20.105 13.41-15.508 5.23-36.274 8.11-58.473 8.11-22.203 0-42.973-2.88-58.48-8.11-15.903-5.36-20.102-11.117-20.102-13.41s4.203-8.047 20.105-13.407zm0 0"/>
  <path d="M494.191 114.504h-136.39a7.509 7.509 0 00-7.508 7.512 7.508 7.508 0 007.508 7.507h30.238v91.172h-17.773V182.72a7.512 7.512 0 00-7.512-7.512 7.511 7.511 0 00-7.508 7.512v37.976h-17.773v-26.707a7.512 7.512 0 00-7.512-7.511 7.509 7.509 0 00-7.508 7.511v26.707h-17.777v-26.707a7.511 7.511 0 00-7.508-7.511 7.512 7.512 0 00-7.512 7.511v26.707h-17.773v-26.707a7.512 7.512 0 00-7.512-7.511 7.511 7.511 0 00-7.508 7.511v26.707h-17.777v-26.707c0-4.148-3.36-7.511-7.508-7.511s-7.512 3.363-7.512 7.511v26.707h-17.773V182.72a7.512 7.512 0 00-7.512-7.512 7.511 7.511 0 00-7.508 7.512v37.976H173.5v-26.707a7.512 7.512 0 00-15.023 0v26.707h-17.774v-26.707a7.511 7.511 0 00-7.508-7.511 7.512 7.512 0 00-7.511 7.511v26.707H107.91v-26.707a7.512 7.512 0 00-7.512-7.511 7.509 7.509 0 00-7.507 7.511v26.707H79.648c-1.527 0-3.035-.074-4.535-.175v-26.532a7.509 7.509 0 00-7.508-7.511 7.512 7.512 0 00-7.511 7.511v23.676a64.453 64.453 0 01-17.774-8.887V182.72a7.512 7.512 0 00-7.511-7.512 7.511 7.511 0 00-7.508 7.512v11.187c-7.715-10.644-12.281-23.71-12.281-37.828V93.836c.007.008.02.016.03.023 16.833 14.864 39.31 22.399 60.59 27.485 24.266 5.797 49.348 8.18 74.27 8.18h161.164a7.51 7.51 0 000-15.02h-11.242V64.762c0-18.567-16.484-35.418-46.418-47.45C225.648 6.149 188.891 0 149.918 0 121.191 0 93.359 3.371 69.43 9.742a7.512 7.512 0 003.867 14.516c22.687-6.043 49.18-9.238 76.621-9.238 79.496 0 134.894 26.214 134.894 49.742 0 13.191-14.554 22.453-24.73 27.86-15.121 8.03-31.55 12.96-48.309 16.468-12.398 2.597-25.003 4.187-37.644 4.972-25.04 1.555-50.207-.027-75.04-3.398-20.933-2.844-42.917-8.855-61.405-19.289-9.446-5.332-22.57-14.23-22.66-26.512 0-.035-.004-.07-.004-.105 0-6 3.53-15.274 20.343-25.367a7.51 7.51 0 00-7.734-12.875C4.797 40.226.004 54.879 0 64.758v91.32c0 39.203 28.488 71.86 65.844 78.414.32.078.644.14.976.176 4.18.68 8.457 1.047 12.828 1.047h414.543c9.82 0 17.809-7.988 17.809-17.809v-85.594c0-9.82-7.988-17.808-17.809-17.808zm-240.777-2.29c13.148-5.284 23.7-11.5 31.398-18.382v20.672h-37.445c2.055-.738 4.078-1.5 6.047-2.29zM496.98 217.907a2.79 2.79 0 01-2.789 2.79H403.06v-91.173h91.132a2.79 2.79 0 012.79 2.79zm0 0"/>
</svg>
