<svg xmlns="http://www.w3.org/2000/svg" viewBox="0 -12 511.998 511">
  <path d="M108.414 189.95h46.61c6.906 0 12.523-5.618 12.523-12.524V154.37c0-6.906-5.617-12.523-12.524-12.523h-46.609c-6.902 0-12.52 5.617-12.52 12.523v23.055c0 6.906 5.618 12.523 12.52 12.523zm2.508-33.075h41.598v18.047h-41.598zm0 0M85.027 269.52a48.23 48.23 0 00-1.386 11.511c0 26.516 21.566 48.082 48.082 48.082 26.511 0 48.082-21.566 48.082-48.082 0-26.511-21.57-48.082-48.082-48.082-1.953 0-3.914.117-5.832.352a7.514 7.514 0 001.808 14.918 33.56 33.56 0 014.024-.242c18.222 0 33.05 14.828 33.05 33.054s-14.824 33.055-33.05 33.055c-18.227 0-33.055-14.828-33.055-33.055 0-2.683.32-5.347.953-7.922a7.513 7.513 0 00-5.5-9.093 7.519 7.519 0 00-9.094 5.504zm0 0"/>
  <path d="M499.477 376.566h-278.7v-39.75a7.514 7.514 0 10-15.027 0v38.473H57.691v-30.262c0-.007.004-.015.004-.02v-87.413c0-.008-.004-.016-.004-.02V213.43c0-.004.004-.012.004-.02v-51.797c0-.008-.004-.011-.004-.02v-18.722c0-13.566 11.04-24.605 24.61-24.605h371.152c13.567 0 24.606 11.039 24.606 24.605v121.945h-66.457l-10.22-41.48a29.182 29.182 0 00-28.39-22.246H234.988c-16.125 0-29.242 13.117-29.242 29.238v59.89a7.515 7.515 0 007.516 7.512 7.515 7.515 0 007.515-7.511v-59.89c0-7.837 6.375-14.212 14.211-14.212h138.004c6.559 0 12.23 4.446 13.797 10.813l10.691 43.386a12.49 12.49 0 0012.157 9.532h6.011v13.824c0 8.074 6.57 14.64 14.641 14.64h6.734v44.075a7.512 7.512 0 007.512 7.511 7.513 7.513 0 007.516-7.511v-44.075h6.73c8.074 0 14.64-6.566 14.64-14.64v-13.824h7.138c6.906 0 12.523-5.621 12.523-12.524V142.867c0-20.183-15.168-36.879-34.7-39.316V83.047c0-6.352-5.167-11.52-11.519-11.52h-28.406c-6.355 0-11.523 5.168-11.523 11.52v20.187H193.566v-8.312c5.399-2.02 9.258-7.211 9.258-13.305V37.145c0-6.094-3.86-11.29-9.258-13.305V8.012A7.513 7.513 0 00186.051.5h-27.524a7.513 7.513 0 00-7.515 7.512v15.824c-5.399 2.02-9.258 7.215-9.258 13.309v44.472c0 6.094 3.86 11.285 9.258 13.305v8.312h-23.285V68.117c0-8.406-6.844-15.25-15.25-15.25h-7.07c-8.41 0-15.25 6.844-15.25 15.25v35.117H82.3c-21.856 0-39.637 17.778-39.637 39.633v11.23h-7.52c-8.949 0-16.23 7.282-16.23 16.227v34.371c0 8.95 7.281 16.23 16.23 16.23h7.52v29.153h-7.52c-8.949 0-16.23 7.277-16.23 16.227v69.984c0 8.95 7.281 16.23 16.23 16.23h7.52v24.044h-30.14C5.616 376.565 0 382.183 0 389.09v53.758c0 6.906 5.617 12.523 12.523 12.523h24.57v16.867c0 8.578 6.981 15.559 15.56 15.559h45.023c8.578 0 15.558-6.98 15.558-15.559v-16.867h285.532v16.867c0 8.578 6.98 15.559 15.558 15.559h45.02c8.582 0 15.562-6.98 15.562-15.559v-16.867h24.57c6.903 0 12.52-5.617 12.52-12.523V389.09c.004-6.906-5.613-12.524-12.52-12.524zm-41.082-83.28H430.68v-13.442h27.715zm-36.43-206.731h21.394v16.68h-21.394zm-243.426 16.68h-12.5v-7.4h12.5zm-12.5-87.708h12.5v7.399h-12.5zm-9.258 22.426h31.012v42.852h-31.012zm-51.597 30.164c0-.12.097-.222.222-.222h7.07c.122 0 .22.101.22.222v34.914h-7.512zm369.851 323.477l-31.93 27.25-31.925-27.25zM35.141 205.898c-.66 0-1.2-.539-1.2-1.203v-34.367c0-.664.54-1.203 1.2-1.203h7.523v36.773zm0 131.594c-.66 0-1.2-.539-1.2-1.203v-69.98c0-.664.54-1.204 1.2-1.204h7.523v72.387zm63.066 134.746a.532.532 0 01-.531.532H52.652a.532.532 0 01-.53-.532v-16.867h46.085zm361.672 0a.532.532 0 01-.531.532h-45.024a.532.532 0 01-.531-.532v-16.867h46.086zm37.094-31.894H15.027v-48.75h373.004l46.946 40.066a12.487 12.487 0 008.132 3.016c2.887 0 5.774-1.004 8.13-3.016l45.734-39.031zm0 0"/>
  <path d="M413.063 151.176h39.855a7.516 7.516 0 007.516-7.516 7.515 7.515 0 00-7.516-7.512h-39.856a7.514 7.514 0 100 15.027zm0 0M413.063 177.223h39.855a7.515 7.515 0 007.516-7.512 7.516 7.516 0 00-7.516-7.516h-39.856a7.514 7.514 0 100 15.028zm0 0"/>
</svg>
