<svg xmlns="http://www.w3.org/2000/svg" viewBox="-18 0 512 512">
  <path d="M434.035 242.36l8.504-60.157c17.16-2.887 30.277-17.84 30.277-35.808 0-14.141-8.214-26.801-20.62-32.75.347-2.957.53-5.934.53-8.891a76.55 76.55 0 00-1.503-15.106 7.486 7.486 0 00-8.828-5.859 7.49 7.49 0 00-5.86 8.828 61.639 61.639 0 01.527 21.219c-.011.09-.023.176-.03.266L418.93 242.16h-71.672l-16.551-117.094h28.938v11.137c0 12.93 10.52 23.45 23.449 23.45s23.453-10.52 23.453-23.45V94.11c0-12.93-10.52-23.453-23.453-23.453-12.93 0-23.45 10.52-23.45 23.453v15.97h-30.956a62.464 62.464 0 01-.243-5.325c0-31.871 24.516-57.8 54.649-57.8 11.633 0 22.738 3.816 32.113 11.03a7.492 7.492 0 0010.508-1.37c2.523-3.278 1.91-7.981-1.367-10.509-12.024-9.246-26.285-14.136-41.254-14.136-38.399 0-69.633 32.652-69.633 72.785 0 1.758.062 3.523.187 5.285-11.09-.402-19.992-9.523-19.992-20.71V78.093a7.489 7.489 0 00-7.492-7.492 7.489 7.489 0 00-7.492 7.492v11.234c0 19.703 16.031 35.734 35.734 35.734h1.164l6.223 44.02c-19.48 4.906-33.797 22.61-33.797 43.356 0 24.652 20.059 44.71 44.711 44.71h1.535l9.055 64.067h-94.188v-16.7-199.25c0-26.367-21.453-47.816-47.816-47.816h-3.05V18.102C198.242 8.122 190.12 0 180.14 0H68.965c-9.98 0-18.102 8.121-18.102 18.102v39.343h-3.047c-13.746 0-26.144 5.84-34.875 15.157a7.304 7.304 0 00-1.117 1.234C4.473 82.246 0 93.238 0 105.262v301.89c0 26.368 21.45 47.817 47.816 47.817h3.047v38.93c0 9.98 8.121 18.101 18.102 18.101h9.418a7.491 7.491 0 007.492-7.492 7.489 7.489 0 00-7.492-7.492h-9.418a3.12 3.12 0 01-3.117-3.118v-38.93h117.41v38.93a3.12 3.12 0 01-3.117 3.118h-55.586a7.489 7.489 0 00-7.492 7.492 7.491 7.491 0 007.492 7.492h55.586c9.98 0 18.101-8.121 18.101-18.102v-38.93h3.051c13.824 0 26.289-5.902 35.027-15.312.278-.261.532-.543.766-.847 7.473-8.438 12.023-19.524 12.023-31.657V336.2h96.305l15.64 110.668c1.587 11.227 11.063 19.692 22.04 19.692s20.453-8.47 22.039-19.692l15.64-110.668h9.024c25.93 0 47.023-21.094 47.023-47.02-.004-24.495-18.836-44.667-42.785-46.82zm15.906-112.528c4.868 3.961 7.891 9.988 7.891 16.563 0 8.812-5.371 16.39-13.008 19.64zM374.63 94.109c0-4.668 3.797-8.464 8.465-8.464s8.465 3.796 8.465 8.464v15.97h-16.93zm0 30.954h16.93v11.136c0 4.668-3.797 8.465-8.465 8.465s-8.469-3.797-8.469-8.465v-11.137zm-71.649 87.374c0-13.242 8.77-24.62 20.926-28.394l8.215 58.102c-16.121-.313-29.14-13.516-29.14-29.708zM65.848 18.102a3.12 3.12 0 013.117-3.118H180.14a3.12 3.12 0 013.117 3.118v39.343H65.848zM47.816 72.434h153.477c18.102 0 32.828 14.726 32.828 32.828v13.453L36.176 74.57a32.636 32.636 0 0111.64-2.136zm-32.832 32.828a32.639 32.639 0 015.903-18.746l213.234 47.55v28.715L14.984 113.914zm0 24.008l219.137 48.867v28.722L14.984 157.984zm0 44.066l219.137 48.879v28.715L14.984 202.059zm0 44.078l219.137 48.867v28.723L14.984 246.129zm186.309 222.57H47.816c-18.101 0-32.832-14.73-32.832-32.832v-13.445l197.942 44.14a32.695 32.695 0 01-11.633 2.137zm32.828-32.832c0 6.97-2.187 13.43-5.902 18.75l-213.235-47.55v-28.723l219.137 48.875zm0-24L14.984 334.273V305.56l219.137 48.867zm0-44.078L14.984 290.207v-28.723l219.137 48.875zM390.29 444.77c-.547 3.878-3.64 6.804-7.195 6.804-3.559 0-6.653-2.926-7.203-6.804l-26.52-187.625h67.441zm39.508-123.555h-6.906l9.043-63.988c16.668 1.101 29.894 15.007 29.894 31.953.004 17.664-14.367 32.035-32.031 32.035zm0 0"/>
</svg>
