<svg xmlns="http://www.w3.org/2000/svg" viewBox="-29 0 512 512">
  <path d="M276.988 199.797a7.54 7.54 0 00-8.527 6.414l-39.785 281.5c-.742 5.246-4.973 9.2-9.844 9.2-4.871 0-9.102-3.954-9.844-9.2l-12.133-85.863a7.547 7.547 0 00-8.527-6.414 7.549 7.549 0 00-6.414 8.527l12.137 85.863c1.785 12.64 12.441 22.176 24.781 22.176 12.34 0 22.996-9.535 24.781-22.176l39.79-281.504a7.543 7.543 0 00-6.415-8.523zm0 0" fill="#a5a5a5"/>
  <path d="M453.066 190.102c-3.156-26.528-20.02-54.637-42.968-71.614-30.54-22.597-65.743-33.687-110.16-34.66C299.406 37.512 263.238 0 218.832 0c-44.738 0-81.133 38.07-81.133 84.863 0 2.809.149 5.633.418 8.446-18.512.308-37-.34-55.254-2.7C64.668 88.262 32.2 80.664 19.145 56.16c-2.204-4.14-5.57-12.27-3.332-20.172 1.648-5.832 6.859-10.39 11.87-10.39h.032a7.545 7.545 0 007.543-7.532 7.54 7.54 0 00-7.528-7.558h-.046c-11.79 0-22.883 8.98-26.391 21.37C-1.43 41.505.18 52.649 5.832 63.255c8.516 15.984 28.453 36.3 75.102 42.32 16.25 2.098 32.558 2.91 48.843 2.91 3.457 0 6.91-.039 10.36-.105l35.222 249.2a7.545 7.545 0 0014.942-2.114l-34.992-247.582c12.421-.551 24.796-1.43 37.082-2.422v16.644c0 14.579 11.863 26.442 26.441 26.442 14.582 0 26.445-11.863 26.445-26.442V72.258c0-14.578-11.863-26.442-26.445-26.442-14.578 0-26.441 11.864-26.441 26.442v18.058c-12.989 1.063-26.067 1.989-39.164 2.54a74.098 74.098 0 01-.438-7.993c0-38.472 29.629-69.773 66.043-69.773 36.418 0 66.047 31.3 66.047 69.773a74.3 74.3 0 01-.816 10.957l-.036.278-8.925 63.16a7.543 7.543 0 1014.937 2.11l8.832-62.47c41.582.797 74.18 10.946 102.258 31.72 19.457 14.394 34.312 39.015 36.957 61.265 1.828 15.336-1.89 28.656-11.047 39.594-13.047 15.582-40.027 21.742-60.144 13.734-9.602-3.824-17.977-13.547-21.336-24.77-1.696-5.671-3.528-16.636 3.285-26.379 6.05-8.656 18.176-12.312 26.472-7.976a7.547 7.547 0 0010.18-3.2 7.542 7.542 0 00-3.2-10.175c-14.917-7.793-35.472-2.094-45.82 12.703-7.632 10.918-9.59 25.262-5.374 39.356 4.703 15.707 16.277 28.91 30.21 34.457 7.778 3.101 16.25 4.574 24.77 4.574 20.102 0 40.445-8.211 52.527-22.64 11.762-14.052 16.762-31.708 14.457-51.06zM207.476 72.258c0-6.262 5.094-11.352 11.356-11.352s11.355 5.09 11.355 11.352v14.836c-5.851.484-11.714.996-17.43 1.492-1.757.152-3.519.305-5.28.46zm0 31.933l6.59-.574c5.293-.457 10.711-.93 16.121-1.383v19.871c0 6.262-5.093 11.356-11.355 11.356s-11.352-5.094-11.352-11.356v-17.914zm0 0" fill="#a5a5a5"/>
</svg>
