<svg xmlns="http://www.w3.org/2000/svg" viewBox="-71 0 512 512">
  <path d="M354.402 0H15.414C6.914 0 0 6.914 0 15.414v443.27c0 8.5 6.914 15.414 15.414 15.414h10.902v20.441c0 9.629 7.836 17.461 17.461 17.461H326.04c9.625 0 17.457-7.832 17.457-17.46v-20.442h10.906c8.5 0 15.414-6.914 15.414-15.414V187.922a7.538 7.538 0 10-15.074 0v270.762a.343.343 0 01-.34.343H15.414a.344.344 0 01-.344-.343V103.578h339.676v35.98a7.532 7.532 0 007.535 7.536 7.534 7.534 0 007.535-7.535V15.414c0-8.5-6.914-15.414-15.414-15.414zM41.387 474.098h287.039v20.441a2.389 2.389 0 01-2.387 2.387H43.777a2.392 2.392 0 01-2.39-2.387zm313.36-385.59H15.07V15.414c0-.187.153-.344.34-.344h338.992a.34.34 0 01.34.344v73.094zm0 0"/>
  <path d="M322.902 27.453H203.734c-6.925 0-12.558 5.633-12.558 12.559v25.465c0 6.925 5.633 12.558 12.558 12.558h119.164c6.926 0 12.563-5.633 12.563-12.558V40.012c0-6.926-5.633-12.559-12.559-12.559zm-2.511 35.512H206.246V42.523h114.145zm0 0M133.129 26.5c-13.95 0-25.293 11.344-25.293 25.29 0 13.948 11.344 25.292 25.293 25.292 13.945 0 25.289-11.344 25.289-25.293 0-13.945-11.344-25.289-25.29-25.289zm0 35.512c-5.637 0-10.223-4.586-10.223-10.223 0-5.637 4.586-10.219 10.223-10.219 5.633 0 10.219 4.582 10.219 10.22 0 5.636-4.586 10.222-10.22 10.222zm0 0M68.512 26.5c-13.946 0-25.293 11.344-25.293 25.29 0 13.948 11.347 25.292 25.293 25.292 13.945 0 25.293-11.344 25.293-25.293 0-13.945-11.348-25.289-25.293-25.289zm0 35.512c-5.637 0-10.219-4.586-10.219-10.223 0-5.637 4.582-10.219 10.219-10.219s10.222 4.582 10.222 10.22c0 5.636-4.586 10.222-10.222 10.222zm0 0M90.242 350.094a7.53 7.53 0 00-.98 10.61c23.715 28.538 58.574 44.905 95.648 44.905 68.54 0 124.305-55.765 124.305-124.308 0-68.54-55.766-124.305-124.305-124.305-68.543 0-124.308 55.766-124.308 124.305 0 12.742 1.921 25.308 5.71 37.355a7.537 7.537 0 0014.38-4.523 109.285 109.285 0 01-5.02-32.832c0-60.23 49.004-109.235 109.238-109.235 60.23 0 109.235 49.004 109.235 109.235 0 60.234-49.004 109.238-109.235 109.238-32.578 0-63.215-14.387-84.055-39.469a7.538 7.538 0 00-10.613-.976zm0 0"/>
  <path d="M184.906 368.297c47.969 0 86.992-39.027 86.992-86.992 0-47.97-39.023-86.996-86.992-86.996s-86.992 39.027-86.992 86.996c0 47.965 39.023 86.992 86.992 86.992zm0-158.918c38.008 0 69.207 29.644 71.739 67.02-3.618 3.738-5.516 5.402-9.754 5.402-4.36 0-6.239-1.758-10.067-5.73-4.21-4.368-9.976-10.344-20.93-10.344-10.949 0-16.71 5.976-20.917 10.343-3.832 3.973-5.707 5.73-10.067 5.73-4.367 0-6.246-1.757-10.082-5.734-4.207-4.367-9.969-10.343-20.914-10.343-10.95 0-16.71 5.976-20.918 10.343-3.836 3.973-5.715 5.735-10.082 5.735-4.23 0-6.129-1.664-9.742-5.403 2.531-37.375 33.726-67.02 71.734-67.02zm-61.992 87.492c10.957 0 16.723-5.98 20.93-10.348 3.832-3.972 5.707-5.73 10.066-5.73s6.238 1.758 10.067 5.73c4.21 4.368 9.976 10.348 20.93 10.348s16.71-5.98 20.917-10.344c3.832-3.976 5.711-5.734 10.07-5.734 4.364 0 6.247 1.758 10.079 5.734 4.207 4.364 9.968 10.344 20.918 10.344 3.28 0 6.086-.543 8.53-1.414-6.593 32.902-35.702 57.766-70.515 57.766s-63.918-24.864-70.515-57.762c2.445.867 5.25 1.41 8.523 1.41zm0 0"/>
</svg>
