<svg xmlns="http://www.w3.org/2000/svg" viewBox="-56 0 511 512">
  <path d="M400.078 327.918c-.004-.074-.004-.148-.012-.219a174.755 174.755 0 00-6.921-41.05 7.413 7.413 0 00-.426-1.442c-15.871-52.172-55.403-94.137-106.043-113.344l23.3-64.664c11.083-4.433 20.172-13.605 24.032-25.847 6.82-21.653-5.242-44.817-26.895-51.641-21.652-6.82-44.82 5.242-51.64 26.894-3.305 10.489-2.328 21.637 2.75 31.391a42.092 42.092 0 002.109 3.598l-18.894 69.73a176.43 176.43 0 00-16.903-.816c-2.625 0-5.234.066-7.828.183l-1.656-23.82c-.29-4.137-3.887-7.246-8.008-6.969-4.137.29-7.258 3.875-6.969 8.008l1.672 24.074a175.29 175.29 0 00-14.41 2.496l-12.54-82.601a40.946 40.946 0 0010.763.219 41.27 41.27 0 0010.457-2.567l.867 12.48c.289 4.137 3.879 7.25 8.008 6.97a7.508 7.508 0 006.968-8.012l-1.453-20.934a42.278 42.278 0 002.766-3.12c6.875-8.583 9.996-19.33 8.789-30.259-1.207-10.933-6.598-20.738-15.18-27.613S187.45-.949 176.52.253c-10.93 1.208-20.735 6.599-27.61 15.18-6.879 8.583-10 19.329-8.789 30.262 1.207 10.93 6.598 20.735 15.18 27.614a42.203 42.203 0 003.383 2.43L172.73 168.3c-71.699 22.164-123.94 89.07-123.94 167.953 0 14.16 1.687 27.93 4.866 41.125.074.52.2 1.02.375 1.5a174.483 174.483 0 009.895 28.695H34.715C15.848 407.574.5 422.922.5 441.79v1.45c0 18.866 15.348 34.214 34.215 34.214h38.348c4.902 0 8.89 3.992 8.89 8.895s-3.988 8.89-8.89 8.89H43.914a7.504 7.504 0 00-7.504 7.508 7.507 7.507 0 007.504 7.508h29.149c13.18 0 23.902-10.727 23.902-23.906 0-13.184-10.723-23.907-23.902-23.907H34.715c-10.59 0-19.203-8.613-19.203-19.203v-1.449c0-10.59 8.613-19.203 19.203-19.203h36.789c6.312 11.148 13.824 21.527 22.328 30.996.461.723 1.04 1.36 1.711 1.887 14.105 15.254 30.867 28.011 49.55 37.52.579.398 1.22.71 1.9.933C170.394 505.48 196.714 512 224.534 512c63.695 0 119.586-34.066 150.41-84.93a7.645 7.645 0 001.008-1.699 174.75 174.75 0 0020.559-52.86c.043-.16.07-.323.105-.484a175.87 175.87 0 003.664-35.773c0-2.797-.074-5.574-.203-8.336zM155.043 44.047c-.77-6.945 1.215-13.774 5.582-19.227 4.371-5.453 10.602-8.879 17.543-9.644a26.39 26.39 0 012.926-.164c5.918 0 11.617 1.992 16.3 5.746 5.454 4.37 8.88 10.597 9.649 17.543.766 6.945-1.219 13.773-5.586 19.226-4.367 5.453-10.598 8.88-17.543 9.645-6.95.77-13.773-1.215-19.226-5.582-5.454-4.367-8.88-10.598-9.645-17.543zm198.809 196.867a160.405 160.405 0 0122.98 43.914c-20.422 12.879-41.223 23.777-61.852 32.996 8.649-22.613 21.329-50.39 38.872-76.91zm-9.93-12.137c-23.367 34.262-38.727 70.883-47.852 97.075a566.402 566.402 0 01-38.754 13.921c9.848-31.117 30.793-85.324 67.461-129.046a161.827 161.827 0 0119.145 18.05zm-49.942-37.464a160.818 160.818 0 0118.637 10.566c-40.816 48.965-62.594 108.676-72.578 143.117a618.173 618.173 0 01-31.504 8.106c7.543-28.403 32.223-107.247 85.445-161.79zM269.793 61.117c3.512-11.152 13.848-18.3 24.965-18.3 2.597 0 5.238.39 7.844 1.21 13.757 4.336 21.421 19.055 17.085 32.813-4.332 13.754-19.05 21.422-32.808 17.086-6.664-2.102-12.113-6.668-15.34-12.867-3.227-6.196-3.848-13.278-1.746-19.942zm2.816 42.582a41.378 41.378 0 009.758 4.547 41.145 41.145 0 0010.606 1.863l-20.551 57.032a173.955 173.955 0 00-15.996-3.727zm-19.972 74.285a159.387 159.387 0 0126.543 7.106c-33.059 35.531-54.692 79.105-67.285 110.453-8.41 20.941-13.895 38.918-17.094 50.676a221.331 221.331 0 01-17.75-22.11c8.465-29.77 31.054-95.886 75.586-146.125zm-52.633-.597c8-1.227 16.191-1.867 24.531-1.867 3.426 0 6.824.12 10.195.332-36.832 44.867-58.007 99.027-68.328 131.558a218.685 218.685 0 01-15.601-33.375c9.289-26.137 25.11-63.047 49.203-96.648zm-62.117 23.543a159.92 159.92 0 0140.715-18.711c-15.16 23.562-26.633 47.742-34.95 68.351-5.851-24.11-5.972-42.867-5.765-49.64zm-14.93 10.855c.418 10.117 1.863 24.774 6.043 42.082a228.901 228.901 0 006.543 22.094c.113.445.27.879.465 1.293A233.173 233.173 0 00162.188 329a7.44 7.44 0 001.03 1.52c6.286 9.167 13.587 18.386 22.028 27.453a629.794 629.794 0 01-27.476 4.593c-43.973-45.933-56.23-97.148-59.528-125.617a161.91 161.91 0 0124.715-25.164zm-37.086 43.27c5.664 29.437 19.633 70.902 53.7 109.863a633.976 633.976 0 01-25.989 2.465c-19.59-22.137-34.266-47.363-43.664-75.07a159.74 159.74 0 0115.953-37.258zm-22.07 81.199c0-5.606.304-11.14.867-16.602 7.988 17.41 18.086 33.739 30.207 48.836-11.691.492-21.105.532-27.73.438a160.543 160.543 0 01-3.344-32.672zm160.734 160.734a160.284 160.284 0 01-43.894-6.113c46.586-6.328 104.828-19.684 163.39-47.242-29.445 32.734-72.105 53.355-119.496 53.355zm139.012-80.125c-77.61 42.602-157.957 57.403-212.625 62.246a161.263 161.263 0 01-32.524-22.257c23.47-.727 58.16-3.383 98.547-11.465 58.938-11.801 112.75-31.57 160.254-58.836a159.833 159.833 0 01-13.652 30.312zm18.973-50.965c-112.676 69.75-237.805 76.16-278.86 76.18a161.928 161.928 0 01-14.652-19.492h4.64c.649 0 1.274-.094 1.872-.246 34.296-.82 93.605-5.535 161.058-25.23a7.507 7.507 0 005.102-9.31 7.502 7.502 0 00-9.309-5.1c-77.008 22.48-143.039 24.976-171.902 24.765a160.576 160.576 0 01-9.41-23.488c.644 0 1.304.003 1.984.003 9.418 0 22.289-.285 37.828-1.332.035-.003.07-.003.106-.007a656.295 656.295 0 0044.613-4.598c26.12-3.598 57.625-9.586 91.656-19.504a7.528 7.528 0 001.68-.484c17.84-5.258 36.36-11.606 55.152-19.25a7.449 7.449 0 001.57-.653c25.004-10.261 50.47-22.843 75.45-38.273a159.738 159.738 0 013.73 24.394c-27.48 17.075-57.406 31.829-89.035 43.868a7.506 7.506 0 00-4.344 9.687 7.504 7.504 0 009.684 4.344c29.644-11.285 57.855-24.89 84.039-40.52a161.345 161.345 0 01-2.652 24.246zm0 0"/>
</svg>
