<svg xmlns="http://www.w3.org/2000/svg" viewBox="-39 1 511 511.999">
  <path d="M143.262 322.832c-.352.27-.668.563-.985.863a7.488 7.488 0 00-4.043 6.645c0 .62.082 1.222.227 1.8-.02.528-.012 1.055.035 1.59l10.059 118.286c.55 6.511 5.898 11.421 12.433 11.421h194.88c6.882 0 12.484-5.597 12.484-12.48v-309.02c0-6.03-4.301-11.19-10.22-12.273-6.01-1.101-21.464-4.766-34.991-14.969-16.121-12.152-24.547-29.656-25.047-52.027-.086-3.973-2.008-7.57-5.262-9.871a12.573 12.573 0 00-11.148-1.664l-73.235 24.172a7.492 7.492 0 004.696 14.226l70.109-23.144c1.394 25.273 12.023 46.058 30.871 60.27.438.331.883.636 1.324.956v13.559c0 4.137 3.352 7.488 7.489 7.488s7.488-3.351 7.488-7.488v-4.774c8.91 4.165 17.195 6.41 22.949 7.594v53.25h-17.793c-2 0-3.812.79-5.156 2.067v-25.102c0-4.137-3.352-7.488-7.488-7.488s-7.489 3.351-7.489 7.488v33.031a7.488 7.488 0 007.489 7.492c3.269 0 6.039-2.097 7.062-5.02a7.458 7.458 0 005.582 2.513h17.793V323.14a7.484 7.484 0 00-5.445 7.199c0 3.43 2.304 6.308 5.445 7.2v110.92h-22.95v-9.987c0-4.137-3.35-7.489-7.487-7.489s-7.489 3.352-7.489 7.489v9.988H163.285l-9.41-110.633h26.797a7.487 7.487 0 007.488-7.488 7.487 7.487 0 00-7.488-7.488h-15.867c20.605-24.332 18.511-52.008 18.32-54.102-2.195-26.281-18.21-45.004-32.152-56.527h9.863c4.137 0 7.488-3.352 7.488-7.489s-3.351-7.492-7.488-7.492H131.14l-26.102-72.031 63.926-21.098a7.49 7.49 0 004.762-9.46 7.481 7.481 0 00-9.457-4.762l-66.368 21.906a12.395 12.395 0 00-7.316 6.398 12.39 12.39 0 00-.504 9.707l28.078 77.489c.133.367.285.726.45 1.078a7.474 7.474 0 004.804 5.324c.258.156.512.312.785.45 6.836 3.503 41.102 22.745 44.008 57.878.117 1.274 2.508 31.438-24.945 52.711zm0 0"/>
  <path d="M315.445 322.852H285.52a7.49 7.49 0 00-7.493 7.488 7.49 7.49 0 007.493 7.488h29.925v1.547a7.488 7.488 0 007.493 7.488 7.487 7.487 0 007.488-7.488V306.34a7.487 7.487 0 00-7.488-7.488 7.488 7.488 0 00-7.493 7.488zm0 0M322.938 364.918a7.488 7.488 0 00-7.493 7.488v33.035a7.488 7.488 0 007.493 7.489 7.487 7.487 0 007.488-7.489v-33.035a7.487 7.487 0 00-7.489-7.488zm0 0M322.938 280.797a7.487 7.487 0 007.488-7.488v-33.036a7.487 7.487 0 00-7.489-7.488 7.488 7.488 0 00-7.492 7.488v33.036a7.49 7.49 0 007.493 7.488zm0 0M230.734 197.242h-34.949c-4.137 0-7.488 3.356-7.488 7.492s3.351 7.489 7.488 7.489h34.95c4.136 0 7.488-3.352 7.488-7.489s-3.352-7.492-7.489-7.492zm0 0M300.633 197.242h-34.95c-4.136 0-7.488 3.356-7.488 7.492s3.352 7.489 7.489 7.489h34.949c4.137 0 7.488-3.352 7.488-7.489s-3.351-7.492-7.488-7.492zm0 0M208.133 330.34a7.487 7.487 0 007.488 7.488h34.95a7.487 7.487 0 007.488-7.488 7.487 7.487 0 00-7.489-7.488h-34.949a7.487 7.487 0 00-7.488 7.488zm0 0"/>
  <path d="M425.477 264.457a7.487 7.487 0 007.488-7.488V15.477C432.965 6.94 426.023 0 417.488 0H70.602c-.125 0-.254.012-.38.02L69.98.03a7.974 7.974 0 00-.964.14c-.051.013-.102.032-.153.044-.273.066-.539.144-.8.242a7.554 7.554 0 00-1.125.504c-.028.016-.055.035-.083.05-.257.153-.507.321-.746.5-.074.055-.144.11-.214.165-.258.21-.512.433-.743.68L2.535 68.84c-.226.242-.43.5-.62.765l-.134.188c-.176.266-.34.535-.484.816-.016.04-.031.082-.05.121-.126.254-.231.516-.321.782-.028.074-.055.144-.074.215a7.148 7.148 0 00-.227.906c-.012.055-.016.113-.023.168-.043.265-.07.535-.086.804-.004.079-.008.153-.008.23a1.7 1.7 0 00-.008.138v422.55C.5 505.055 7.441 512 15.977 512h401.511c8.535 0 15.477-6.945 15.477-15.477V303.18a7.487 7.487 0 00-7.488-7.489 7.487 7.487 0 00-7.489 7.489v193.343c0 .274-.226.5-.5.5H15.977a.504.504 0 01-.5-.5V81.465h50.132c6.883 0 12.485-5.598 12.485-12.48V14.976h339.394a.5.5 0 01.496.5v241.492a7.49 7.49 0 007.493 7.488zM63.113 66.484H25.328l37.785-40.12zm0 0"/>
  <path d="M398.848 322.852h-14.684a7.49 7.49 0 00-7.492 7.488 7.49 7.49 0 007.492 7.488h14.684a7.487 7.487 0 007.488-7.488 7.487 7.487 0 00-7.488-7.488zm0 0M398.848 448.46h-14.684a7.49 7.49 0 100 14.977h14.684c4.136 0 7.488-3.351 7.488-7.488s-3.352-7.488-7.488-7.488zm0 0M398.848 130.156h-14.684a7.49 7.49 0 100 14.98h14.684a7.488 7.488 0 007.488-7.491 7.487 7.487 0 00-7.488-7.489zm0 0M398.848 48.563h-14.684c-4.137 0-7.492 3.351-7.492 7.488s3.355 7.488 7.492 7.488h14.684c4.136 0 7.488-3.352 7.488-7.488s-3.352-7.489-7.488-7.489zm0 0M38.281 409.52h63.992a7.488 7.488 0 100-14.977H38.281a7.488 7.488 0 100 14.977zm0 0M38.281 436.477h45.645c4.136 0 7.488-3.352 7.488-7.489s-3.352-7.488-7.488-7.488H38.28a7.488 7.488 0 100 14.977zm0 0M38.281 463.438h82.922c4.137 0 7.488-3.352 7.488-7.489s-3.351-7.488-7.488-7.488H38.281a7.488 7.488 0 100 14.976zm0 0"/>
</svg>
