<svg xmlns="http://www.w3.org/2000/svg" viewBox="0 -6 511.999 511">
  <path d="M504.473 324.79a7.53 7.53 0 007.527-7.532V59.278c0-16.876-13.73-30.602-30.602-30.602H443.73v-3.059C443.73 11.77 432.46.5 418.61.5h-8.419c-13.847 0-25.117 11.27-25.117 25.117v3.059H238.27a7.524 7.524 0 00-7.528 7.527 7.526 7.526 0 007.528 7.527h146.804v20.184c0 13.852 11.27 25.121 25.117 25.121h8.418c13.852 0 25.121-11.27 25.121-25.12V43.73h37.668c8.57 0 15.547 6.973 15.547 15.547v46.446H43.391V59.277c0-8.574 6.972-15.547 15.546-15.547h37.668v20.184c0 13.852 11.266 25.121 25.118 25.121h8.418c13.851 0 25.12-11.27 25.12-25.12V43.73h36.837c4.16 0 7.527-3.37 7.527-7.527s-3.367-7.527-7.527-7.527h-36.836v-3.059C155.262 11.77 143.992.5 130.14.5h-8.418C107.87.5 96.605 11.77 96.605 25.617v3.059H58.937c-16.875 0-30.601 13.726-30.601 30.601v352.547H17.602a17.612 17.612 0 00-13.094 5.844 17.663 17.663 0 00-4.406 13.68c6.41 58.914 47.613 67.691 49.367 68.039.476.093.965.14 1.453.14h414.086c.027 0 .05-.004.078-.004h16.312c16.872 0 30.602-13.726 30.602-30.601v-106a7.529 7.529 0 00-7.527-7.527 7.526 7.526 0 00-7.528 7.527v106c0 8.57-6.976 15.547-15.547 15.547h-12.761a7.349 7.349 0 00-1.157-.52c-3.94-1.37-11.64-4.894-18.902-13.094-9.21-10.402-14.73-24.863-16.41-42.992-.848-9.144-8.379-16.039-17.527-16.039H43.39V120.777h453.554v196.48a7.527 7.527 0 007.528 7.532zM428.676 63.913c0 5.55-4.516 10.066-10.067 10.066h-8.418c-5.546 0-10.062-4.515-10.062-10.066V25.617c0-5.547 4.516-10.062 10.062-10.062h8.418c5.551 0 10.067 4.515 10.067 10.062zM111.66 25.617c0-5.547 4.516-10.062 10.063-10.062h8.418c5.55 0 10.066 4.515 10.066 10.062v38.297c0 5.55-4.516 10.066-10.066 10.066h-8.418c-5.551 0-10.063-4.515-10.063-10.066zM417.18 429.25c2.586 27.957 13.144 44.992 23.707 55.219 0 0-355.664 0-355.664.004H51.8c-7.465-2.008-14.246-6.903-19.461-12.465-5.055-5.395-8.883-11.836-11.633-18.68-1.46-3.633-9.332-26.45-3.102-26.45h397.04c1.316 0 2.41 1.02 2.535 2.372zm0 0"/>
  <path d="M98.008 166.3c-15.719 0-28.504 12.79-28.504 28.505 0 15.722 12.785 28.507 28.504 28.507s28.508-12.789 28.508-28.507c0-15.715-12.79-28.504-28.508-28.504zm0 41.958c-7.418 0-13.45-6.035-13.45-13.45 0-7.417 6.032-13.449 13.45-13.449 7.418 0 13.453 6.032 13.453 13.45 0 7.414-6.035 13.449-13.453 13.449zm0 0M184.09 223.313c15.715 0 28.504-12.786 28.504-28.504S199.804 166.3 184.09 166.3c-15.723 0-28.508 12.789-28.508 28.508s12.785 28.504 28.508 28.504zm0-41.958c7.414 0 13.45 6.036 13.45 13.45 0 7.418-6.036 13.453-13.45 13.453-7.418 0-13.453-6.035-13.453-13.453 0-7.414 6.035-13.45 13.453-13.45zm0 0M270.168 166.3c-15.719 0-28.508 12.79-28.508 28.505 0 15.722 12.79 28.507 28.508 28.507s28.504-12.789 28.504-28.507c0-15.715-12.785-28.504-28.504-28.504zm0 41.958c-7.418 0-13.453-6.035-13.453-13.45 0-7.417 6.035-13.449 13.453-13.449s13.45 6.032 13.45 13.45c0 7.414-6.036 13.449-13.45 13.449zm0 0M356.246 166.3c-15.719 0-28.508 12.79-28.508 28.505 0 15.722 12.79 28.507 28.508 28.507s28.508-12.789 28.508-28.507c0-15.715-12.79-28.504-28.508-28.504zm0 41.958c-7.418 0-13.45-6.035-13.45-13.45 0-7.417 6.036-13.449 13.45-13.449 7.418 0 13.45 6.032 13.45 13.45 0 7.414-6.032 13.449-13.45 13.449zm0 0M442.324 166.3c-15.719 0-28.504 12.79-28.504 28.505 0 15.722 12.79 28.507 28.504 28.507 15.719 0 28.508-12.789 28.508-28.507 0-15.715-12.789-28.504-28.508-28.504zm0 41.958c-7.414 0-13.449-6.035-13.449-13.45 0-7.417 6.035-13.449 13.45-13.449 7.417 0 13.452 6.032 13.452 13.45 0 7.414-6.035 13.449-13.453 13.449zm0 0M98.008 247.586c-15.719 0-28.504 12.789-28.504 28.508s12.785 28.504 28.504 28.504 28.508-12.785 28.508-28.504-12.79-28.508-28.508-28.508zm0 41.957c-7.418 0-13.45-6.035-13.45-13.45 0-7.417 6.032-13.452 13.45-13.452 7.418 0 13.453 6.035 13.453 13.453 0 7.414-6.035 13.449-13.453 13.449zm0 0M270.168 247.586c-15.719 0-28.508 12.789-28.508 28.508s12.79 28.504 28.508 28.504 28.504-12.785 28.504-28.504-12.785-28.508-28.504-28.508zm0 41.957c-7.418 0-13.453-6.035-13.453-13.45 0-7.417 6.035-13.452 13.453-13.452s13.45 6.035 13.45 13.453c0 7.414-6.036 13.449-13.45 13.449zm0 0M356.246 247.586c-15.719 0-28.508 12.789-28.508 28.508s12.79 28.504 28.508 28.504 28.508-12.785 28.508-28.504-12.79-28.508-28.508-28.508zm0 41.957c-7.418 0-13.45-6.035-13.45-13.45 0-7.417 6.036-13.452 13.45-13.452 7.418 0 13.45 6.035 13.45 13.453.003 7.414-6.032 13.449-13.45 13.449zm0 0M442.324 247.586c-15.719 0-28.504 12.789-28.504 28.508s12.79 28.504 28.504 28.504c15.719 0 28.508-12.785 28.508-28.504s-12.789-28.508-28.508-28.508zm0 41.957c-7.414 0-13.449-6.035-13.449-13.45 0-7.417 6.035-13.452 13.45-13.452 7.417 0 13.452 6.035 13.452 13.453 0 7.414-6.035 13.449-13.453 13.449zm0 0M98.008 328.871c-15.719 0-28.504 12.79-28.504 28.508s12.785 28.504 28.504 28.504 28.508-12.79 28.508-28.504c0-15.719-12.79-28.508-28.508-28.508zm0 41.957c-7.418 0-13.45-6.031-13.45-13.45 0-7.413 6.032-13.448 13.45-13.448 7.418 0 13.453 6.035 13.453 13.449 0 7.418-6.035 13.45-13.453 13.45zm0 0M184.09 328.871c-15.723 0-28.508 12.79-28.508 28.508s12.79 28.504 28.508 28.504c15.715 0 28.504-12.79 28.504-28.504 0-15.719-12.79-28.508-28.504-28.508zm0 41.957c-7.418 0-13.453-6.031-13.453-13.45 0-7.413 6.035-13.448 13.453-13.448 7.414 0 13.45 6.035 13.45 13.449 0 7.418-6.036 13.45-13.45 13.45zm0 0M270.168 328.871c-15.719 0-28.508 12.79-28.508 28.508s12.79 28.504 28.508 28.504 28.504-12.79 28.504-28.504c0-15.719-12.785-28.508-28.504-28.508zm0 41.957c-7.418 0-13.453-6.031-13.453-13.45 0-7.413 6.035-13.448 13.453-13.448s13.45 6.035 13.45 13.449c0 7.418-6.036 13.45-13.45 13.45zm0 0M356.246 328.871c-15.719 0-28.508 12.79-28.508 28.508s12.79 28.504 28.508 28.504 28.508-12.79 28.508-28.504c0-15.719-12.79-28.508-28.508-28.508zm0 41.957c-7.418 0-13.45-6.031-13.45-13.45 0-7.413 6.036-13.448 13.45-13.448 7.418 0 13.45 6.035 13.45 13.449 0 7.418-6.032 13.45-13.45 13.45zm0 0M442.324 328.871c-15.719 0-28.504 12.79-28.504 28.508s12.79 28.504 28.504 28.504c15.719 0 28.508-12.79 28.508-28.504 0-15.719-12.789-28.508-28.508-28.508zm0 41.957c-7.414 0-13.449-6.031-13.449-13.45 0-7.413 6.035-13.448 13.45-13.448 7.417 0 13.452 6.035 13.452 13.449 0 7.418-6.035 13.45-13.453 13.45zm0 0M211.137 256.02c-2.59-3.25-7.328-3.782-10.578-1.192l-16.473 13.14-16.469-13.14a7.532 7.532 0 00-10.578 1.192 7.525 7.525 0 001.188 10.578l13.789 11-13.79 11a7.53 7.53 0 00-1.187 10.582 7.505 7.505 0 005.887 2.832 7.49 7.49 0 004.687-1.645l16.473-13.137 16.473 13.137a7.498 7.498 0 004.687 1.645c2.211 0 4.402-.969 5.89-2.832a7.534 7.534 0 00-1.19-10.582l-13.79-11 13.79-11a7.526 7.526 0 001.19-10.578zm0 0"/>
</svg>
