<svg xmlns="http://www.w3.org/2000/svg" viewBox="0 0 512 512">
  <path d="M390.148 187.484c12.122 0 21.985-9.859 21.985-21.98s-9.863-21.984-21.985-21.984c-12.117 0-21.98 9.863-21.98 21.984s9.86 21.98 21.98 21.98zm0-28.96c3.848 0 6.977 3.132 6.977 6.98s-3.129 6.976-6.977 6.976c-3.843 0-6.976-3.128-6.976-6.976s3.129-6.98 6.976-6.98zm0 0M297.898 187.484c12.122 0 21.98-9.859 21.98-21.98s-9.858-21.984-21.98-21.984c-12.12 0-21.98 9.863-21.98 21.984s9.86 21.98 21.98 21.98zm0-28.96c3.848 0 6.977 3.132 6.977 6.98s-3.129 6.976-6.977 6.976c-3.847 0-6.976-3.128-6.976-6.976s3.129-6.98 6.976-6.98zm0 0M344.023 233.61c12.122 0 21.985-9.86 21.985-21.981 0-12.125-9.863-21.984-21.985-21.984-12.12 0-21.98 9.863-21.98 21.984 0 12.117 9.86 21.98 21.98 21.98zm0-28.958c3.848 0 6.98 3.13 6.98 6.977s-3.132 6.976-6.98 6.976c-3.847 0-6.976-3.128-6.976-6.976s3.129-6.977 6.976-6.977zm0 0M344.023 141.36c12.122 0 21.985-9.86 21.985-21.981s-9.863-21.984-21.985-21.984c-12.12 0-21.98 9.863-21.98 21.984 0 12.117 9.86 21.98 21.98 21.98zm0-28.958c3.848 0 6.98 3.13 6.98 6.977s-3.132 6.976-6.98 6.976c-3.847 0-6.976-3.128-6.976-6.976s3.129-6.977 6.976-6.977zm0 0"/>
  <path d="M344.023 0c-92.62 0-167.972 75.355-167.972 167.977 0 2.773.078 5.535.215 8.277-2.75-.133-5.512-.203-8.29-.203-32.644 0-64.292 9.37-91.53 27.105-3.473 2.258-4.454 6.906-2.192 10.38 2.258 3.472 6.906 4.452 10.379 2.194 24.793-16.144 53.613-24.675 83.344-24.675 84.347 0 152.968 68.62 152.968 152.968 0 84.348-68.62 152.973-152.968 152.973-84.348 0-152.973-68.625-152.973-152.973 0-37.07 13.43-72.828 37.809-100.691a7.5 7.5 0 10-11.29-9.879C14.746 264.051 0 303.32 0 344.023 0 436.645 75.355 512 167.977 512c92.62 0 167.972-75.355 167.972-167.977 0-2.777-.07-5.539-.203-8.285 2.742.137 5.5.211 8.277.211 42.82 0 83.602-16.117 114.832-45.379a7.505 7.505 0 00.344-10.605 7.5 7.5 0 00-10.601-.344c-28.442 26.649-65.578 41.324-104.575 41.324-3.261 0-6.496-.117-9.71-.32a166.5 166.5 0 00-7.274-30.621c5.555.77 11.223 1.172 16.984 1.172 67.938 0 123.204-55.266 123.204-123.2 0-67.937-55.27-123.203-123.204-123.203-67.933 0-123.199 55.266-123.199 123.204 0 5.761.403 11.43 1.176 16.984a166.617 166.617 0 00-30.625-7.274c-.207-3.21-.32-6.449-.32-9.71 0-84.348 68.62-152.973 152.968-152.973 84.348 0 152.973 68.625 152.973 152.973 0 26.847-7.05 53.253-20.394 76.363a7.504 7.504 0 002.746 10.25 7.503 7.503 0 0010.246-2.746C504.25 226.457 512 197.454 512 167.977 512 75.355 436.645 0 344.023 0zm0 59.777c59.66 0 108.2 48.54 108.2 108.2 0 59.656-48.54 108.195-108.2 108.195-8.101 0-15.988-.906-23.585-2.602-16.739-36.082-45.915-65.261-81.997-82.004a107.96 107.96 0 01-2.613-23.59c0-59.66 48.535-108.199 108.195-108.199zm0 0"/>
  <path d="M167.977 467.227c67.933 0 123.199-55.266 123.199-123.204 0-67.933-55.266-123.199-123.2-123.199-67.937 0-123.203 55.266-123.203 123.2 0 67.933 55.266 123.203 123.204 123.203zm0-231.399c59.66 0 108.195 48.535 108.195 108.195s-48.54 108.2-108.195 108.2c-59.66 0-108.2-48.54-108.2-108.2 0-59.66 48.54-108.195 108.2-108.195zm0 0"/>
  <path d="M214.102 363.535c12.12 0 21.98-9.863 21.98-21.984 0-12.121-9.86-21.98-21.98-21.98-12.122 0-21.985 9.859-21.985 21.98 0 12.12 9.863 21.984 21.985 21.984zm0-28.96a6.983 6.983 0 016.976 6.976c0 3.851-3.129 6.98-6.976 6.98a6.988 6.988 0 01-6.98-6.98c0-3.848 3.132-6.977 6.98-6.977zm0 0M121.852 363.535c12.117 0 21.98-9.863 21.98-21.984 0-12.121-9.863-21.98-21.98-21.98-12.122 0-21.985 9.859-21.985 21.98 0 12.12 9.863 21.984 21.985 21.984zm0-28.96c3.843 0 6.976 3.128 6.976 6.976 0 3.851-3.133 6.98-6.976 6.98a6.988 6.988 0 01-6.98-6.98c0-3.848 3.132-6.977 6.98-6.977zm0 0M167.977 409.66c12.117 0 21.98-9.863 21.98-21.984 0-12.121-9.86-21.98-21.98-21.98-12.122 0-21.985 9.859-21.985 21.98 0 12.12 9.863 21.984 21.985 21.984zm0-28.96c3.843 0 6.976 3.132 6.976 6.976 0 3.847-3.129 6.98-6.976 6.98a6.988 6.988 0 01-6.98-6.98c0-3.848 3.132-6.977 6.98-6.977zm0 0M167.977 317.41c12.117 0 21.98-9.863 21.98-21.984 0-12.121-9.86-21.98-21.98-21.98-12.122 0-21.985 9.859-21.985 21.98 0 12.12 9.863 21.984 21.985 21.984zm0-28.96c3.843 0 6.976 3.132 6.976 6.976 0 3.847-3.129 6.98-6.976 6.98a6.985 6.985 0 01-6.98-6.98c0-3.848 3.132-6.977 6.98-6.977zm0 0"/>
</svg>
