<svg height="512pt" viewBox="-163 0 512 512.002" width="512pt" xmlns="http://www.w3.org/2000/svg"><path d="m155.15625 189.714844c-3.335938-3.21875-5.328125-8.289063-5.328125-13.566406 0-1.859376.238281-3.703126.714844-5.46875l9.609375-35.621094c1.082031-4.007813-1.292969-8.136719-5.300782-9.21875-4.007812-1.082032-8.136718 1.292968-9.214843 5.300781l-9.609375 35.625c-.820313 3.042969-1.238282 6.203125-1.238282 9.382813 0 9.417968 3.621094 18.308593 9.933594 24.394531 16.566406 15.96875 26.070313 39.710937 26.070313 65.132812v13.910157c0 6.851562-4.519531 12.425781-10.070313 12.425781h-135.613281c-5.554687 0-10.070313-5.574219-10.070313-12.425781v-13.910157c0-25.421875 9.5-49.164062 26.066407-65.132812 6.3125-6.085938 9.933593-14.976563 9.933593-24.394531 0-3.183594-.414062-6.34375-1.234374-9.386719l-24.824219-92.023438c-2.222657-8.25-.875-17.207031 3.605469-23.960937 3.386718-5.101563 8.144531-8.304688 13.402343-9.023438l25.644531-3.5c7.417969-1.011718 13.011719-7.421875 13.011719-14.910156l.007813-8.304688 24.53125.007813v8.296875c0 7.488281 5.59375 13.894531 13.011718 14.90625l25.644532 3.503906c5.257812.714844 10.015625 3.921875 13.402344 9.019532 4.480468 6.757812 5.832031 15.714843 3.605468 23.964843l-3.011718 11.167969c-1.082032 4.011719 1.289062 8.136719 5.300781 9.21875s8.132812-1.292969 9.214843-5.300781l3.015626-11.171875c3.332031-12.359375 1.242187-25.886719-5.597657-36.191406-5.808593-8.753907-14.292969-14.296876-23.894531-15.605469l-25.652344-3.511719v-8.296875c0-8.296875-6.75-15.046875-15.046875-15.046875h-24.523437c-8.296875 0-15.046875 6.75-15.046875 15.046875l-.007813 8.308594-25.644531 3.5c-9.601563 1.308593-18.085937 6.851562-23.894531 15.605469-6.835938 10.304687-8.929688 23.832031-5.59375 36.191406l24.820312 92.027344c.476563 1.765624.71875 3.609374.71875 5.46875 0 5.277343-1.992187 10.347656-5.332031 13.566406-19.492187 18.789062-30.671875 46.476562-30.671875 75.960937v13.910157c0 15.140624 11.265625 27.460937 25.109375 27.460937h33.234375v17.054687c0 5.898438 4.800781 10.695313 10.695312 10.695313h1.488282v53.199219c0 4.152344 3.363281 7.519531 7.515625 7.519531 4.152343 0 7.519531-3.367187 7.519531-7.519531v-53.199219h14.703125v134.417969h-14.703125v-35.105469c0-4.152344-3.367188-7.519531-7.519531-7.519531-4.152344 0-7.515625 3.367187-7.515625 7.519531v35.105469h-27.367188c-11.625 0-21.085937 9.460937-21.085937 21.085937v11.007813c0 5.898437 4.796875 10.695312 10.695312 10.695312h120.289063c5.898437 0 10.695312-4.796875 10.695312-10.695312v-11.007813c0-11.625-9.460937-21.085937-21.085937-21.085937h-27.363281v-134.417969h1.484374c5.898438 0 10.695313-4.796875 10.695313-10.695313v-17.054687h33.234375c13.847656 0 25.109375-12.320313 25.109375-27.460937v-13.910157c0-29.484375-11.179687-57.171875-30.671875-75.960937zm-81.773438 130.042968v-12.710937h39.066407v12.710937zm69.285157 164.496094c3.335937 0 6.050781 2.710938 6.050781 6.046875v6.664063h-111.605469v-6.664063c0-3.335937 2.710938-6.046875 6.046875-6.046875zm0 0"/></svg>