<svg xmlns="http://www.w3.org/2000/svg" viewBox="0 -19 512.001 512">
  <path d="M510.477 162.59a14.036 14.036 0 00-8.36-7.117 8585.068 8585.068 0 01-24.55-7.868c-1.919-.613-3.227-1.035-3.567-1.144a13442.15 13442.15 0 00-34.953-11.063c-8.75-2.761-176.055-51.843-176.055-51.843V60.53a7.494 7.494 0 00-7.496-7.492c-.965 0-1.887.191-2.734.523-9.18-1.55-16.2-9.523-16.2-19.136 0-10.719 8.72-19.442 19.438-19.442s19.441 8.723 19.441 19.442a7.491 7.491 0 007.493 7.492 7.494 7.494 0 007.492-7.492C290.426 15.446 274.984 0 256 0c-18.98 0-34.426 15.445-34.426 34.426 0 16.226 11.297 29.844 26.43 33.457v15.683S81.727 132.63 72.992 135.386c-11.668 3.68-23.336 7.364-34.988 11.075-.352.11-1.715.547-3.711 1.191-5.856 1.883-17.211 5.536-24.41 7.82a14.043 14.043 0 00-8.36 7.122 14.035 14.035 0 00-.75 10.957l40.922 119.554a14.117 14.117 0 008.414 8.672 14.125 14.125 0 0012.047-.98l19.516-11.223 28.715 173.11a14.122 14.122 0 0013.972 11.847h50.22a7.491 7.491 0 007.491-7.492 7.492 7.492 0 00-7.492-7.496h-49.52L96.263 285.957a14.153 14.153 0 00-7.91-10.484 14.16 14.16 0 00-13.122.52l-19.68 11.316-40.323-117.813c7.226-2.297 18-5.762 23.656-7.578 1.972-.633 3.316-1.066 3.668-1.18 11.64-3.707 23.293-7.383 34.949-11.062a14198.47 14198.47 0 0021.324-6.738c12.32 16.726 28.516 33.69 47.16 49.343 22.262 18.7 46.61 31.063 72.375 36.746 12.72 2.805 25.211 4.207 37.684 4.207 10.477 0 20.937-.988 31.504-2.964a7.49 7.49 0 005.988-8.743 7.491 7.491 0 00-8.738-5.988c-21.422 4.004-41.512 3.64-63.211-1.144-23.379-5.157-45.57-16.457-65.965-33.59-16.223-13.621-30.46-28.22-41.656-42.672a4493.211 4493.211 0 0029.562-9.52c5.61 7.895 11.778 15.41 18.625 22.262 6.688 6.688 14.059 12.7 22 17.832 17.512 11.316 38.426 18.121 59.203 20.055 33.583 3.129 68.747-6.485 95.079-27.64.046-.036.093-.071.14-.11 5.113-4.114 9.918-8.602 14.418-13.38 5.2-5.519 10.094-11.644 14.574-17.757.008-.012.016-.023.028-.035.293-.41.59-.813.883-1.223a4731.348 4731.348 0 0029.562 9.52c-11.195 14.449-25.434 29.047-41.66 42.672-9.684 8.136-19.824 15.007-30.14 20.43a7.49 7.49 0 00-3.15 10.116 7.495 7.495 0 0010.118 3.149c11.266-5.918 22.305-13.395 32.809-22.219 18.648-15.656 34.843-32.62 47.164-49.344 7.164 2.27 14.3 4.524 21.355 6.75a12956.74 12956.74 0 0134.918 11.051l3.527 1.133c5.618 1.805 16.504 5.309 23.797 7.625l-40.324 117.813-19.68-11.317a14.169 14.169 0 00-13.125-.523 14.185 14.185 0 00-7.91 10.484l-28.793 173.59H220.703a7.494 7.494 0 000 14.988h166.938a14.122 14.122 0 0013.972-11.847l28.715-173.11 19.516 11.223a14.125 14.125 0 0012.047.976 14.098 14.098 0 008.414-8.672l40.922-119.554a14.044 14.044 0 00-.75-10.961zM255.504 97.035l84.402 23.23c-27.508 7.887-55.636 11.915-83.918 11.95h-.394c-28.38 0-56.457-4.02-83.762-11.938zm88.937 37.715c-5.941 6.621-11.843 12.121-19.015 17.41-10.73 7.918-23.965 14.235-36.68 17.758-.02.008-.039.012-.058.02-20.45 5.667-42.188 5.945-62.68.675a115.742 115.742 0 01-21.824-8.02c-13.88-6.761-26.29-16.323-36.59-27.804-.047-.055-.094-.105-.14-.16 28.722 8.351 58.269 12.57 88.144 12.57h.414c29.883-.039 59.605-4.297 88.64-12.683l-.21.234zm0 0"/>
</svg>
