<svg xmlns="http://www.w3.org/2000/svg" viewBox="0 -5 512 512">
  <path d="M255.996 294.992c12.797 0 23.203-10.406 23.203-23.203 0-12.793-10.406-23.203-23.203-23.203-12.793 0-23.203 10.41-23.203 23.203 0 12.797 10.41 23.203 23.203 23.203zm0-31.414c4.527 0 8.211 3.684 8.211 8.211s-3.684 8.211-8.21 8.211-8.212-3.684-8.212-8.21c0-4.528 3.684-8.212 8.211-8.212zm0 0M296.992 426.828c2.235 24.824 23.153 43.555 47.613 43.555 1.43 0 2.872-.063 4.32-.195 26.274-2.364 45.727-25.66 43.36-51.934-2.363-26.27-25.66-45.723-51.933-43.36-12.727 1.149-24.247 7.18-32.434 16.989-8.191 9.808-12.07 22.219-10.926 34.945zm22.434-25.336c5.62-6.734 13.531-10.879 22.27-11.664 18.03-1.633 34.034 11.73 35.66 29.77 1.62 18.039-11.735 34.035-29.774 35.66-18.039 1.629-34.035-11.73-35.656-29.77-.79-8.738 1.875-17.261 7.5-23.996zm0 0M163.066 470.188c1.454.132 2.895.195 4.325.195 24.457 0 45.379-18.735 47.613-43.551v-.004c1.144-12.726-2.734-25.137-10.926-34.945-8.187-9.809-19.707-15.844-32.433-16.988-26.282-2.368-49.57 17.085-51.934 43.359-2.367 26.273 17.086 49.57 43.355 51.934zm-28.425-50.59c1.535-17.043 15.898-29.903 32.691-29.903.98 0 1.973.043 2.969.133 8.738.785 16.648 4.93 22.27 11.664 5.62 6.735 8.284 15.258 7.5 23.996-1.626 18.04-17.614 31.407-35.66 29.77-18.04-1.625-31.391-17.621-29.77-35.66zm0 0"/>
  <path d="M509.64 188.61c-13.593-17.419-28.156-37.837-28.878-59.758-.114-3.504.117-7.086.363-10.88.32-4.898.648-9.96.23-15.202-1.578-19.676-12.96-36.13-23.968-52.04-9.61-13.886-18.684-27.003-20.996-41.39C435.52 3.93 430.918 0 425.453 0H11.086c-3.3 0-6.402 1.457-8.516 3.992a11.094 11.094 0 00-2.383 9.133C3.36 30.262 13.556 45 23.415 59.254c10.336 14.937 20.098 29.05 21.352 44.71.332 4.161.054 8.47-.243 13.036-.261 3.984-.527 8.11-.39 12.344.89 26.992 17.332 49.918 35.566 72.965a11.018 11.018 0 008.692 4.203h103.414l12.957 64.656a59.35 59.35 0 007.437 19.086l-2.281 23.562c-.047.485-.117.977-.207 1.454l-6.738 35.492a80.04 80.04 0 00-28.434-8.008c-36.254-3.258-70.195 18.344-82.539 52.543a7.494 7.494 0 004.508 9.594 7.49 7.49 0 009.594-4.504c10.03-27.797 37.625-45.348 67.093-42.703 17.32 1.558 33.004 9.773 44.153 23.125 11.144 13.351 16.425 30.25 14.867 47.574-1.559 17.324-9.77 33.004-23.125 44.152-13.352 11.145-30.246 16.426-47.57 14.867-26.497-2.382-48.657-20.359-56.454-45.793a7.498 7.498 0 00-9.363-4.972 7.498 7.498 0 00-4.969 9.367c9.59 31.285 36.848 53.398 69.442 56.332 2.449.219 4.89.328 7.32.328 18.711 0 36.664-6.484 51.203-18.621 16.426-13.715 26.531-33.004 28.45-54.32.996-11.082-.301-22.016-3.688-32.274L255.996 347l12.54 50.45c-3.388 10.257-4.684 21.19-3.688 32.273 1.918 21.312 12.02 40.605 28.449 54.32 14.539 12.137 32.488 18.621 51.203 18.621 2.426 0 4.871-.11 7.32-.328 43.996-3.961 76.567-42.977 72.61-86.973-3.961-43.996-42.97-76.558-86.973-72.61a80.06 80.06 0 00-28.437 8.009l-6.735-35.489c-.094-.48-.16-.968-.21-1.453l-2.282-23.57c3.539-5.852 6.086-12.309 7.437-19.082l12.918-64.652h51.786c4.14 0 7.496-3.356 7.496-7.496s-3.356-7.497-7.496-7.497h-48.79l19.997-100.101a11.476 11.476 0 00-2.059-9.113l-10.992-14.66a11.26 11.26 0 00-9.844-4.5c-3.871.273-7.3 2.476-9.18 5.894l-47.578 86.645v-5.766a7.495 7.495 0 00-7.496-7.496 7.495 7.495 0 00-7.496 7.496v33.07l-4.598 8.371h-45.98c-.512 0-1.012.059-1.504.157H90.281c-16.144-20.497-30.441-40.766-31.164-62.668-.113-3.504.117-7.086.363-10.88.32-4.898.649-9.96.23-15.202-1.573-19.68-12.96-36.133-23.968-52.047-8.336-12.051-16.262-23.508-19.734-35.73h234.058a7.447 7.447 0 00-1.566 4.577v25.403a7.493 7.493 0 007.496 7.496 7.495 7.495 0 007.496-7.496V19.57a7.45 7.45 0 00-1.57-4.578h160.285c3.535 16.344 13.344 30.528 22.852 44.266 10.336 14.941 20.097 29.05 21.351 44.707.332 4.16.055 8.469-.242 13.031-.262 3.988-.531 8.113-.39 12.348.777 23.597 13.718 44.289 27.195 62.176h-75.711c-4.14 0-7.496 3.355-7.496 7.496s3.355 7.496 7.496 7.496h83.644c4.27 0 8.086-2.383 9.957-6.219 1.875-3.836 1.407-8.313-1.222-11.684zM266.95 328.897a31.19 31.19 0 00-1.766-5.109l21.054-17.996.918 9.473c.09.937.223 1.879.399 2.8l7.836 41.282a80.845 80.845 0 00-12.25 11.851 81.626 81.626 0 00-4.282 5.633zm71.85 28.786a66.478 66.478 0 015.887-.266c33.293 0 61.77 25.5 64.813 59.285 3.219 35.766-23.262 67.48-59.023 70.7-17.325 1.562-34.22-3.723-47.57-14.872-13.356-11.148-21.567-26.828-23.126-44.152-3.219-35.762 23.258-67.477 59.02-70.695zM321.505 81.187l6.629 8.84L292.53 268.23c-1.933 9.688-7.11 18.536-14.562 24.907l-22.942 19.61a30.952 30.952 0 00-9.98 16.151l-11.91 47.93a83.8 83.8 0 00-4.282-5.629 80.716 80.716 0 00-12.253-11.855l7.835-41.278c.176-.921.313-1.867.403-2.804l5.941-61.38a44.07 44.07 0 015.27-17.077zm-85.922 125.325l-12.672 23.074a59.107 59.107 0 00-6.887 21.484l-8.925-44.558zm0 0"/>
  <path d="M255.996 72.46a7.495 7.495 0 00-7.496 7.497v34.98a7.495 7.495 0 007.496 7.497 7.498 7.498 0 007.496-7.496V79.957c0-4.14-3.36-7.496-7.496-7.496zm0 0"/>
</svg>
