<svg xmlns="http://www.w3.org/2000/svg" viewBox="0 -27 512 512">
  <path d="M512 234.84v-10.867c0-18.399-14.969-33.368-33.367-33.368h-33.961a34.563 34.563 0 006.191-19.77v-8.89c0-10.949-5.093-20.726-13.027-27.101 7.934-6.375 13.027-16.153 13.027-27.102v-8.89c0-11.239-5.363-21.243-13.664-27.602 8.301-6.355 13.664-16.363 13.664-27.602v-8.89C450.863 15.594 435.273 0 416.105 0H95.895C76.727 0 61.137 15.594 61.137 34.758v8.89c0 11.239 5.363 21.247 13.664 27.602-8.301 6.36-13.664 16.363-13.664 27.602v8.89c0 10.95 5.093 20.727 13.027 27.102-7.934 6.375-13.027 16.152-13.027 27.101v8.89c0 7.36 2.304 14.188 6.222 19.813C30.055 191.61 0 222.23 0 259.758v2.445c0 26.95 15.504 50.328 38.05 61.735C15.505 335.344 0 358.726 0 385.671v2.445c0 38.133 31.023 69.153 69.152 69.153h21.953a7.494 7.494 0 100-14.989H69.152c-29.863 0-54.16-24.297-54.16-54.164v-2.445c0-29.863 24.297-54.164 54.16-54.164h409.48c10.134 0 18.376 8.246 18.376 18.379v10.867c0 10.133-8.242 18.375-18.375 18.375H122.477a7.495 7.495 0 00-7.497 7.496v.543a7.494 7.494 0 007.497 7.492h356.156c10.133 0 18.375 8.246 18.375 18.38v10.862c0 10.137-8.242 18.38-18.375 18.38H138.074a7.495 7.495 0 00-7.496 7.495 7.498 7.498 0 007.496 7.496h340.559c18.398 0 33.367-14.968 33.367-33.37v-10.864c0-10.578-4.95-20.027-12.656-26.144C507.05 380.777 512 371.332 512 360.754v-10.867c0-10.473-4.852-19.828-12.422-25.95 7.57-6.12 12.422-15.476 12.422-25.949v-10.863c0-10.578-4.95-20.027-12.656-26.145C507.05 254.863 512 245.418 512 234.84zM273.672 14.988l-2.149 2.29c-2.828 3.019-2.68 7.765.34 10.597s7.766 2.68 10.594-.34l11.766-12.547h121.882c10.903 0 19.77 8.867 19.77 19.77v8.89c0 10.899-8.867 19.766-19.77 19.766H248.81l1.558-1.664c2.832-3.016 2.68-7.762-.34-10.594-3.015-2.832-7.761-2.68-10.593.34L203.008 90.34l-70.664-75.352zM76.125 34.758c0-10.903 8.867-19.77 19.77-19.77h15.898l45.414 48.426H95.895c-10.903 0-19.77-8.867-19.77-19.766zm0 64.094c0-10.903 8.867-19.77 19.77-19.77h76.003l21.997 23.457a12.535 12.535 0 009.113 3.945c3.437 0 6.758-1.437 9.11-3.945l22-23.457h181.987c10.903 0 19.77 8.867 19.77 19.77v8.89c0 9.98-7.441 18.235-17.066 19.559a36.339 36.339 0 00-2.704-.114H95.895c-.91 0-1.813.047-2.704.114-9.625-1.324-17.066-9.578-17.066-19.559zm0 63.093c0-9.98 7.441-18.234 17.066-19.558.891.066 1.793.113 2.704.113h320.21c.91 0 1.813-.047 2.704-.113 9.625 1.324 17.066 9.578 17.066 19.558v8.89c0 10.903-8.867 19.77-19.77 19.77H95.895c-10.903 0-19.77-8.867-19.77-19.77zm420.883 72.895c0 10.133-8.242 18.375-18.375 18.375H122.477a7.495 7.495 0 00-7.497 7.496v.543a7.494 7.494 0 007.497 7.492h356.156c10.133 0 18.375 8.246 18.375 18.379v10.863c0 10.137-8.242 18.38-18.375 18.38H69.153c-29.864 0-54.16-24.298-54.16-54.165v-2.445c0-29.863 24.296-54.164 54.16-54.164h409.48c10.133 0 18.375 8.246 18.375 18.379zm0 0"/>
</svg>
