<svg xmlns="http://www.w3.org/2000/svg" viewBox="-173 0 512 512">
  <path d="M156.992 88.543c-3.273-4.914-6.344-10.86-9.12-17.668-1.563-3.836-5.942-5.68-9.774-4.113a7.498 7.498 0 00-4.114 9.777c3.153 7.734 6.696 14.574 10.528 20.324 4.93 7.395 7.215 16.98 6.273 26.297-1.328 13.137-6.105 23.754-13.047 32.035-4.535-11.488-13.11-20.953-23.96-26.648V90.063c0-9.676-7.872-17.547-17.544-17.547H69.766c-9.672 0-17.543 7.87-17.543 17.546v38.485c-10.72 5.621-19.215 14.926-23.797 26.226-7.04-8.234-11.906-18.718-13.211-31.613-.942-9.316 1.348-18.902 6.273-26.297C38.711 71.02 45.082 31.012 47.028 15h71.956a292.517 292.517 0 002.063 13.973c.7 4.082 4.57 6.832 8.66 6.125a7.496 7.496 0 006.121-8.66c-1.957-11.41-2.625-19.465-2.633-19.543A7.496 7.496 0 00125.723 0H40.28a7.5 7.5 0 00-7.476 6.895c-.043.523-4.457 52.628-23.797 81.652-6.926 10.39-10.02 23.219-8.715 36.125 2.102 20.812 11.469 36.598 24.437 47.746-.015.508-.039 1.016-.039 1.531v55.531c0 14.465 6.032 27.536 15.704 36.86V499.5c0 6.895 5.605 12.5 12.5 12.5h60.21c6.895 0 12.5-5.605 12.5-12.5V266.27c8.754-8.438 14.563-19.946 15.551-32.813a7.5 7.5 0 00-6.902-8.055c-4.156-.34-7.734 2.774-8.05 6.903-1.442 18.73-17.31 33.402-36.122 33.402H75.918c-19.977 0-36.227-16.25-36.227-36.227v-55.535c0-19.976 16.25-36.226 36.227-36.226h14.164c19.977 0 36.227 16.25 36.227 36.226v11.715a7.5 7.5 0 007.504 7.5 7.5 7.5 0 007.5-7.5v-11.715c0-.328-.02-.656-.028-.984 14.024-12.152 22.445-28.73 24.426-48.293 1.305-12.902-1.793-25.734-8.719-36.125zM55.395 460.988H83c4.145 0 7.5-3.355 7.5-7.5a7.5 7.5 0 00-7.5-7.5H55.395V415.41H83c4.145 0 7.5-3.355 7.5-7.5 0-4.144-3.355-7.5-7.5-7.5H55.395v-30.578H83a7.5 7.5 0 007.5-7.5c0-4.144-3.355-7.5-7.5-7.5H55.395v-30.578H83a7.5 7.5 0 007.5-7.5 7.5 7.5 0 00-7.5-7.504H55.395v-32.844a50.91 50.91 0 0020.523 4.305h14.164c7.266 0 14.211-1.555 20.523-4.344v9.594H83.004a7.497 7.497 0 00-7.5 7.5c0 4.144 3.355 7.5 7.5 7.5h27.601v30.578H83.004a7.5 7.5 0 00-7.5 7.5c0 4.145 3.355 7.5 7.5 7.5h27.601v30.578H83.004a7.5 7.5 0 00-7.5 7.504 7.5 7.5 0 007.5 7.5h27.601V422.7H83.004a7.497 7.497 0 00-7.5 7.5 7.5 7.5 0 007.5 7.5h27.601v30.578H83.004a7.497 7.497 0 00-7.5 7.5c0 4.145 3.355 7.5 7.5 7.5h27.601V497h-55.21zm43.382-337.523a51.453 51.453 0 00-8.695-.746H75.918c-2.965 0-5.867.261-8.695.746V90.063a2.552 2.552 0 012.547-2.547h26.464a2.549 2.549 0 012.543 2.547zm0 0"/>
  <path d="M55.133 221.93c0 15.367 12.5 27.867 27.867 27.867s27.867-12.5 27.867-27.867c0-15.368-12.5-27.868-27.867-27.868s-27.867 12.5-27.867 27.868zm40.734 0c0 7.093-5.77 12.867-12.867 12.867-7.094 0-12.867-5.774-12.867-12.867S75.906 209.062 83 209.062c7.098 0 12.867 5.774 12.867 12.868zm0 0"/>
</svg>
