<svg xmlns="http://www.w3.org/2000/svg" viewBox="0 -12 512.002 512">
  <path d="M28.02 159.941a7.516 7.516 0 0015.03 0v-25.05a7.513 7.513 0 00-7.515-7.512 7.515 7.515 0 00-7.515 7.512zm0 0M28.02 210.04a7.516 7.516 0 0015.03 0v-25.052a7.513 7.513 0 00-7.515-7.511 7.515 7.515 0 00-7.515 7.511zm0 0M35.535 117.36a7.516 7.516 0 007.516-7.516V84.793a7.516 7.516 0 00-15.031 0v25.05a7.519 7.519 0 007.515 7.516zm0 0M239.984 43.055c2.188 0 4.336.336 6.387 1.004a7.513 7.513 0 009.469-4.829 7.517 7.517 0 00-4.828-9.468 35.684 35.684 0 00-11.024-1.739H223.79a7.514 7.514 0 00-7.516 7.516 7.514 7.514 0 007.516 7.516zm0 0M268.145 95.934a7.514 7.514 0 00-7.516 7.515v25.047a7.514 7.514 0 007.516 7.516 7.514 7.514 0 007.515-7.516V103.45a7.519 7.519 0 00-7.515-7.515zm0 0M28.02 239.988c0 8.606 3.109 16.914 8.746 23.399a7.498 7.498 0 005.672 2.582 7.48 7.48 0 004.93-1.844 7.51 7.51 0 00.737-10.602 20.634 20.634 0 01-5.054-13.535v-4.898a7.516 7.516 0 00-15.031 0zm0 0M275.656 63.7a35.354 35.354 0 00-2.37-12.813 7.513 7.513 0 10-14.024 5.398 20.583 20.583 0 011.367 7.41v14.703a7.514 7.514 0 007.516 7.516 7.514 7.514 0 007.515-7.516V63.7zm0 0M148.64 43.055a7.514 7.514 0 007.516-7.516 7.514 7.514 0 00-7.515-7.516h-25.047a7.514 7.514 0 00-7.516 7.516 7.514 7.514 0 007.516 7.516zm0 0M28.367 58.719A7.515 7.515 0 1043.25 60.8c.863-6.172 4.438-11.567 9.813-14.805a7.508 7.508 0 002.554-10.312 7.513 7.513 0 00-10.312-2.559c-9.27 5.586-15.446 14.914-16.938 25.594zm0 0M198.738 43.055a7.514 7.514 0 007.516-7.516 7.514 7.514 0 00-7.516-7.516h-25.047a7.514 7.514 0 00-7.515 7.516 7.514 7.514 0 007.515 7.516zm0 0M107.227 268.145a7.514 7.514 0 007.515 7.515h25.047a7.514 7.514 0 100-15.027h-25.047a7.513 7.513 0 00-7.515 7.512zm0 0M64.645 275.66H89.69a7.514 7.514 0 007.516-7.515 7.514 7.514 0 00-7.516-7.516H64.645a7.514 7.514 0 00-7.516 7.516 7.514 7.514 0 007.516 7.515zm0 0M73.492 43.055h25.051a7.514 7.514 0 007.516-7.516 7.514 7.514 0 00-7.516-7.516h-25.05a7.513 7.513 0 00-7.513 7.516 7.513 7.513 0 007.512 7.516zm0 0"/>
  <path d="M504.484 275.363a7.514 7.514 0 100-15.027h-10.976V228.44h10.976a7.516 7.516 0 000-15.031h-10.976v-36.137c0-6.906-5.617-12.527-12.524-12.527h-36.14v-10.723a7.516 7.516 0 00-15.031 0v10.723h-33.711v-10.723a7.514 7.514 0 10-15.027 0v10.723h-33.712v-10.723a7.516 7.516 0 00-15.031 0v10.723H303.68V12.527C303.68 5.621 298.063 0 291.156 0H88.004a7.516 7.516 0 000 15.031h200.648v132.817a7.509 7.509 0 00-3.242 6.175v10.727h-9.75v-11.203a7.514 7.514 0 00-7.515-7.516 7.514 7.514 0 00-7.516 7.516v11.203h-7.11v-10.727c0-4.148-3.363-7.511-7.515-7.511s-7.516 3.363-7.516 7.511v10.727h-36.136c-6.907 0-12.528 5.617-12.528 12.523v36.141h-10.976a7.514 7.514 0 100 15.027h10.976v31.895h-10.976c-.72 0-1.414.105-2.075.297H164.84a7.514 7.514 0 100 15.027h24.988v12.992h-174.8V15.032h25.55c4.152 0 7.516-3.364 7.516-7.516S44.73 0 40.578 0H12.523C5.617.004 0 5.621 0 12.527v278.63c0 6.906 5.617 12.527 12.523 12.527h177.301v3.574h-10.976a7.512 7.512 0 00-7.512 7.512 7.513 7.513 0 007.512 7.515h10.976v33.711h-10.976a7.513 7.513 0 00-7.512 7.516 7.515 7.515 0 007.512 7.515h10.976v33.711h-10.976a7.513 7.513 0 00-7.512 7.516 7.512 7.512 0 007.512 7.512h10.976v36.14c0 6.906 5.621 12.524 12.528 12.524h36.136v12.234a7.516 7.516 0 0015.032 0V468.43h31.89v12.234a7.516 7.516 0 0015.031 0V468.43h31.895v12.234a7.514 7.514 0 1015.027 0V468.43h33.711v12.234c0 4.152 3.364 7.516 7.516 7.516s7.515-3.364 7.515-7.516V468.43h33.711v12.234a7.516 7.516 0 0015.031 0V468.43h36.137c6.907 0 12.524-5.618 12.524-12.524v-36.14h10.98a7.516 7.516 0 000-15.032h-10.98v-33.71h10.98a7.515 7.515 0 007.516-7.512 7.516 7.516 0 00-7.516-7.516h-10.98v-33.71h10.98a7.516 7.516 0 000-15.032h-10.98v-31.89zm-26.004-61.949h-11.066a7.514 7.514 0 100 15.027h11.066v31.895h-11.066a7.514 7.514 0 100 15.027h11.066v31.895h-11.066a7.514 7.514 0 100 15.027h11.066v33.711h-11.066a7.514 7.514 0 00-7.516 7.516 7.514 7.514 0 007.516 7.515h11.066v33.711h-11.066a7.516 7.516 0 000 15.031h11.066v33.633h-33.636v-9.808a7.514 7.514 0 10-15.028 0v9.808h-33.71v-9.808a7.516 7.516 0 00-15.032 0v9.808h-33.71v-9.808c0-4.153-3.364-7.516-7.516-7.516s-7.516 3.363-7.516 7.516v9.808h-31.89v-9.808a7.514 7.514 0 00-7.516-7.516 7.514 7.514 0 00-7.516 7.516v9.808h-31.89v-9.808a7.516 7.516 0 00-15.031 0v9.808h-33.634V419.77h11.067a7.516 7.516 0 000-15.031h-11.067v-33.712h11.067a7.516 7.516 0 000-15.03h-11.067v-33.712h11.067a7.515 7.515 0 007.515-7.512 7.516 7.516 0 00-7.515-7.515h-11.067v-31.895h11.067a7.515 7.515 0 007.515-7.511 7.516 7.516 0 00-7.515-7.516h-11.067V228.44h11.067a7.515 7.515 0 007.515-7.511 7.516 7.516 0 00-7.515-7.516h-11.067v-33.637h33.633v11.32a7.516 7.516 0 0015.032 0v-11.32h31.89v11.32a7.516 7.516 0 0015.031 0v-11.32h31.895v11.32a7.514 7.514 0 1015.027 0v-11.32h33.711v11.32c0 4.153 3.363 7.516 7.516 7.516s7.515-3.363 7.515-7.515v-11.32h33.711v11.32a7.516 7.516 0 0015.031 0v-11.32h33.633zm0 0"/>
  <path d="M367.188 236.633c-11.329 5.16-19.875 14.984-25.52 23.36-5.648-8.376-14.191-18.204-25.523-23.36-20.149-9.172-44.563-5.196-59.372 9.676-11.535 11.582-16.617 27.652-14.699 46.468a7.5 7.5 0 008.238 6.711 7.51 7.51 0 006.715-8.234c-1.465-14.387 2.032-25.942 10.395-34.34 10.469-10.516 27.941-13.227 42.496-6.602 9.926 4.516 17.48 15.024 21.098 20.887a12.44 12.44 0 0010.652 5.942 12.43 12.43 0 0010.648-5.942c3.621-5.863 11.176-16.37 21.098-20.887 14.555-6.628 32.031-3.91 42.496 6.602 10.961 11.008 13.543 27.262 7.668 48.305-4.8 17.195-14.266 33.554-27.383 47.304-11.675 12.247-30.574 28.227-54.53 35.16-23.954-6.933-42.853-22.913-54.528-35.16-5.77-6.046-10.864-12.62-15.137-19.539-2.184-3.53-6.813-4.617-10.344-2.437s-4.625 6.812-2.441 10.34c4.82 7.804 10.555 15.207 17.043 22.011 13.086 13.72 34.469 31.704 62.015 39.446 1.114.312 2.254.468 3.395.468s2.277-.156 3.387-.468c27.55-7.742 48.933-25.727 62.02-39.446 14.808-15.53 25.519-34.078 30.98-53.64 9.261-33.188-1.14-52.551-11.496-62.95-14.805-14.87-39.22-18.843-59.372-9.675zm0 0"/>
</svg>
