<svg xmlns="http://www.w3.org/2000/svg" viewBox="-112 0 512 512">
  <path d="M288.422 417.39l-45.54-331.68c-1.85-13.515-11.952-24.233-24.757-27.347V21.176C218.125 9.5 208.629 0 196.953 0h-20.09c-4.14 0-7.5 3.355-7.5 7.5s3.36 7.5 7.5 7.5h20.09a6.18 6.18 0 016.172 6.176v36.27H85.602v-36.27A6.18 6.18 0 0191.773 15h38.59c4.14 0 7.5-3.355 7.5-7.5s-3.36-7.5-7.5-7.5h-38.59C80.098 0 70.602 9.5 70.602 21.176v37.187C57.797 61.477 47.695 72.195 45.84 85.711L.305 417.39a32.755 32.755 0 0010.199 28.472 7.502 7.502 0 0010.601-.406 7.505 7.505 0 00-.41-10.602 17.75 17.75 0 01-5.53-15.425l4.39-31.977 253.078 25.211.93 6.766a17.728 17.728 0 01-4.2 14.054 17.723 17.723 0 01-13.351 6.07H61.359a7.5 7.5 0 00-7.5 7.5 7.5 7.5 0 007.5 7.5h9.243v36.27C70.602 502.5 80.098 512 91.773 512h105.18c11.676 0 21.172-9.5 21.172-21.176v-36.27h37.887a32.713 32.713 0 0032.41-37.163zm-85.297 73.434a6.18 6.18 0 01-6.172 6.176H91.773a6.18 6.18 0 01-6.171-6.176v-36.27h117.523zm41.637-281.144l-198.09-19.735 4.086-29.78 189.8 18.91zm2.101 15.285l4.653 33.89L40.102 237.79l4.527-32.973zm6.75 49.172l3.848 28.039-223.149-22.227 3.75-27.289zm-15.148-110.348L52.8 145.293l4.09-29.781 177.37 17.668zM32.273 294.82l227.29 22.64 4.09 29.798-235.36-23.446zm45.98-222.375h132.22c8.808 0 16.351 6.578 17.55 15.305l4.141 30.148-173.23-17.257 1.77-12.891c1.194-8.727 8.741-15.305 17.55-15.305zM21.599 372.582l4.652-33.898 239.5 23.859 4.785 34.836zm0 0"/>
</svg>
