<svg xmlns="http://www.w3.org/2000/svg" data-name="Layer 1" viewBox="0 0 128 128">
  <path d="M76.5 57.25h-5.75V51.5A1.75 1.75 0 0069 49.75H59a1.75 1.75 0 00-1.75 1.75v5.75H51.5A1.75 1.75 0 0049.75 59v10a1.75 1.75 0 001.75 1.75h5.75v5.75A1.75 1.75 0 0059 78.25h10a1.75 1.75 0 001.75-1.75v-5.75h5.75A1.75 1.75 0 0078.25 69V59a1.75 1.75 0 00-1.75-1.75zm-1.75 10H69A1.75 1.75 0 0067.25 69v5.75h-6.5V69A1.75 1.75 0 0059 67.25h-5.75v-6.5H59A1.75 1.75 0 0060.75 59v-5.75h6.5V59A1.75 1.75 0 0069 60.75h5.75z" fill="red"/>
  <path d="M108.75 49.5h-3.193v-5.4a1.751 1.751 0 00-1.314-1.7c-.91-.233-22.476-5.721-40.243-5.721S24.667 42.167 23.757 42.4a1.751 1.751 0 00-1.314 1.7v5.4H19.25a14.5 14.5 0 000 29h3.193v5.4a1.751 1.751 0 001.314 1.7c.91.233 22.476 5.721 40.243 5.721s39.333-5.487 40.243-5.721a1.751 1.751 0 001.314-1.7v-5.4h3.193a14.5 14.5 0 000-29zM19.25 75a11 11 0 010-22h3.193v22zm6.693 1.75V45.469a192.34 192.34 0 012.5-.579v38.221a192.34 192.34 0 01-2.5-.579zm6 7.12V44.13c7.924-1.654 20.924-3.95 32.057-3.95s24.133 2.3 32.057 3.951V83.87C88.133 85.524 75.133 87.82 64 87.82s-24.133-2.296-32.057-3.95zm70.114-1.338c-.632.151-1.477.349-2.5.579V44.889c1.023.23 1.868.428 2.5.579v37.063zM108.75 75h-3.193V53h3.193a11 11 0 010 22z" />
</svg>
